<?xml version="1.0" encoding="utf-8" standalone="no"?>
<!DOCTYPE svg PUBLIC "-//W3C//DTD SVG 1.1//EN"
  "http://www.w3.org/Graphics/SVG/1.1/DTD/svg11.dtd">
<!-- Created with matplotlib (http://matplotlib.org/) -->
<svg height="936pt" version="1.1" viewBox="0 0 720 936" width="720pt" xmlns="http://www.w3.org/2000/svg" xmlns:xlink="http://www.w3.org/1999/xlink">
 <defs>
  <style type="text/css">
*{stroke-linecap:butt;stroke-linejoin:round;stroke-miterlimit:100000;}
  </style>
 </defs>
 <g id="figure_1">
  <g id="patch_1">
   <path d="M 0 936 
L 720 936 
L 720 0 
L 0 0 
z
" style="fill:#ffffff;"/>
  </g>
  <g id="axes_1">
   <g id="patch_2">
    <path d="M 269.4582 815.744925 
L 695.1168 815.744925 
L 695.1168 24.8832 
L 269.4582 24.8832 
z
" style="fill:#eaeaf2;"/>
   </g>
   <g id="matplotlib.axis_1">
    <g id="xtick_1">
     <g id="line2d_1">
      <path clip-path="url(#p43ff2f1a33)" d="M 312.02406 815.744925 
L 312.02406 24.8832 
" style="fill:none;stroke:#ffffff;stroke-linecap:round;stroke-width:1.6;"/>
     </g>
     <g id="line2d_2"/>
     <g id="line2d_3"/>
     <g id="text_1">
      <!-- −3 -->
      <defs>
       <path d="M 4.203125 18.890625 
L 12.984375 20.0625 
Q 14.5 12.59375 18.140625 9.296875 
Q 21.78125 6 27 6 
Q 33.203125 6 37.46875 10.296875 
Q 41.75 14.59375 41.75 20.953125 
Q 41.75 27 37.796875 30.921875 
Q 33.84375 34.859375 27.734375 34.859375 
Q 25.25 34.859375 21.53125 33.890625 
L 22.515625 41.609375 
Q 23.390625 41.5 23.921875 41.5 
Q 29.546875 41.5 34.03125 44.421875 
Q 38.53125 47.359375 38.53125 53.46875 
Q 38.53125 58.296875 35.25 61.46875 
Q 31.984375 64.65625 26.8125 64.65625 
Q 21.6875 64.65625 18.265625 61.421875 
Q 14.84375 58.203125 13.875 51.765625 
L 5.078125 53.328125 
Q 6.6875 62.15625 12.390625 67.015625 
Q 18.109375 71.875 26.609375 71.875 
Q 32.46875 71.875 37.390625 69.359375 
Q 42.328125 66.84375 44.9375 62.5 
Q 47.5625 58.15625 47.5625 53.265625 
Q 47.5625 48.640625 45.0625 44.828125 
Q 42.578125 41.015625 37.703125 38.765625 
Q 44.046875 37.3125 47.5625 32.6875 
Q 51.078125 28.078125 51.078125 21.140625 
Q 51.078125 11.765625 44.234375 5.25 
Q 37.40625 -1.265625 26.953125 -1.265625 
Q 17.53125 -1.265625 11.296875 4.34375 
Q 5.078125 9.96875 4.203125 18.890625 
" id="ArialMT-33"/>
       <path d="M 52.828125 31.203125 
L 5.5625 31.203125 
L 5.5625 39.40625 
L 52.828125 39.40625 
z
" id="ArialMT-2212"/>
      </defs>
      <g style="fill:#262626;" transform="translate(301.07856 840.687925)scale(0.192 -0.192)">
       <use xlink:href="#ArialMT-2212"/>
       <use x="58.3984375" xlink:href="#ArialMT-33"/>
      </g>
     </g>
    </g>
    <g id="xtick_2">
     <g id="line2d_4">
      <path clip-path="url(#p43ff2f1a33)" d="M 397.15578 815.744925 
L 397.15578 24.8832 
" style="fill:none;stroke:#ffffff;stroke-linecap:round;stroke-width:1.6;"/>
     </g>
     <g id="line2d_5"/>
     <g id="line2d_6"/>
     <g id="text_2">
      <!-- −2 -->
      <defs>
       <path d="M 50.34375 8.453125 
L 50.34375 0 
L 3.03125 0 
Q 2.9375 3.171875 4.046875 6.109375 
Q 5.859375 10.9375 9.828125 15.625 
Q 13.8125 20.3125 21.34375 26.46875 
Q 33.015625 36.03125 37.109375 41.625 
Q 41.21875 47.21875 41.21875 52.203125 
Q 41.21875 57.421875 37.46875 61 
Q 33.734375 64.59375 27.734375 64.59375 
Q 21.390625 64.59375 17.578125 60.78125 
Q 13.765625 56.984375 13.71875 50.25 
L 4.6875 51.171875 
Q 5.609375 61.28125 11.65625 66.578125 
Q 17.71875 71.875 27.9375 71.875 
Q 38.234375 71.875 44.234375 66.15625 
Q 50.25 60.453125 50.25 52 
Q 50.25 47.703125 48.484375 43.546875 
Q 46.734375 39.40625 42.65625 34.8125 
Q 38.578125 30.21875 29.109375 22.21875 
Q 21.1875 15.578125 18.9375 13.203125 
Q 16.703125 10.84375 15.234375 8.453125 
z
" id="ArialMT-32"/>
      </defs>
      <g style="fill:#262626;" transform="translate(386.21028 840.687925)scale(0.192 -0.192)">
       <use xlink:href="#ArialMT-2212"/>
       <use x="58.3984375" xlink:href="#ArialMT-32"/>
      </g>
     </g>
    </g>
    <g id="xtick_3">
     <g id="line2d_7">
      <path clip-path="url(#p43ff2f1a33)" d="M 482.2875 815.744925 
L 482.2875 24.8832 
" style="fill:none;stroke:#ffffff;stroke-linecap:round;stroke-width:1.6;"/>
     </g>
     <g id="line2d_8"/>
     <g id="line2d_9"/>
     <g id="text_3">
      <!-- −1 -->
      <defs>
       <path d="M 37.25 0 
L 28.46875 0 
L 28.46875 56 
Q 25.296875 52.984375 20.140625 49.953125 
Q 14.984375 46.921875 10.890625 45.40625 
L 10.890625 53.90625 
Q 18.265625 57.375 23.78125 62.296875 
Q 29.296875 67.234375 31.59375 71.875 
L 37.25 71.875 
z
" id="ArialMT-31"/>
      </defs>
      <g style="fill:#262626;" transform="translate(471.342 840.687925)scale(0.192 -0.192)">
       <use xlink:href="#ArialMT-2212"/>
       <use x="58.3984375" xlink:href="#ArialMT-31"/>
      </g>
     </g>
    </g>
    <g id="xtick_4">
     <g id="line2d_10">
      <path clip-path="url(#p43ff2f1a33)" d="M 567.41922 815.744925 
L 567.41922 24.8832 
" style="fill:none;stroke:#ffffff;stroke-linecap:round;stroke-width:1.6;"/>
     </g>
     <g id="line2d_11"/>
     <g id="line2d_12"/>
     <g id="text_4">
      <!-- 0 -->
      <defs>
       <path d="M 4.15625 35.296875 
Q 4.15625 48 6.765625 55.734375 
Q 9.375 63.484375 14.515625 67.671875 
Q 19.671875 71.875 27.484375 71.875 
Q 33.25 71.875 37.59375 69.546875 
Q 41.9375 67.234375 44.765625 62.859375 
Q 47.609375 58.5 49.21875 52.21875 
Q 50.828125 45.953125 50.828125 35.296875 
Q 50.828125 22.703125 48.234375 14.96875 
Q 45.65625 7.234375 40.5 3 
Q 35.359375 -1.21875 27.484375 -1.21875 
Q 17.140625 -1.21875 11.234375 6.203125 
Q 4.15625 15.140625 4.15625 35.296875 
M 13.1875 35.296875 
Q 13.1875 17.671875 17.3125 11.828125 
Q 21.4375 6 27.484375 6 
Q 33.546875 6 37.671875 11.859375 
Q 41.796875 17.71875 41.796875 35.296875 
Q 41.796875 52.984375 37.671875 58.78125 
Q 33.546875 64.59375 27.390625 64.59375 
Q 21.34375 64.59375 17.71875 59.46875 
Q 13.1875 52.9375 13.1875 35.296875 
" id="ArialMT-30"/>
      </defs>
      <g style="fill:#262626;" transform="translate(562.08072 840.687925)scale(0.192 -0.192)">
       <use xlink:href="#ArialMT-30"/>
      </g>
     </g>
    </g>
    <g id="xtick_5">
     <g id="line2d_13">
      <path clip-path="url(#p43ff2f1a33)" d="M 652.55094 815.744925 
L 652.55094 24.8832 
" style="fill:none;stroke:#ffffff;stroke-linecap:round;stroke-width:1.6;"/>
     </g>
     <g id="line2d_14"/>
     <g id="line2d_15"/>
     <g id="text_5">
      <!-- 1 -->
      <g style="fill:#262626;" transform="translate(647.21244 840.687925)scale(0.192 -0.192)">
       <use xlink:href="#ArialMT-31"/>
      </g>
     </g>
    </g>
    <g id="text_6">
     <!-- log(NG/Funtional Region) -->
     <defs>
      <path id="ArialMT-20"/>
      <path d="M 40.4375 6.390625 
Q 35.546875 2.25 31.03125 0.53125 
Q 26.515625 -1.171875 21.34375 -1.171875 
Q 12.796875 -1.171875 8.203125 3 
Q 3.609375 7.171875 3.609375 13.671875 
Q 3.609375 17.484375 5.34375 20.625 
Q 7.078125 23.78125 9.890625 25.6875 
Q 12.703125 27.59375 16.21875 28.5625 
Q 18.796875 29.25 24.03125 29.890625 
Q 34.671875 31.15625 39.703125 32.90625 
Q 39.75 34.71875 39.75 35.203125 
Q 39.75 40.578125 37.25 42.78125 
Q 33.890625 45.75 27.25 45.75 
Q 21.046875 45.75 18.09375 43.578125 
Q 15.140625 41.40625 13.71875 35.890625 
L 5.125 37.0625 
Q 6.296875 42.578125 8.984375 45.96875 
Q 11.671875 49.359375 16.75 51.1875 
Q 21.828125 53.03125 28.515625 53.03125 
Q 35.15625 53.03125 39.296875 51.46875 
Q 43.453125 49.90625 45.40625 47.53125 
Q 47.359375 45.171875 48.140625 41.546875 
Q 48.578125 39.3125 48.578125 33.453125 
L 48.578125 21.734375 
Q 48.578125 9.46875 49.140625 6.21875 
Q 49.703125 2.984375 51.375 0 
L 42.1875 0 
Q 40.828125 2.734375 40.4375 6.390625 
M 39.703125 26.03125 
Q 34.90625 24.078125 25.34375 22.703125 
Q 19.921875 21.921875 17.671875 20.9375 
Q 15.4375 19.96875 14.203125 18.09375 
Q 12.984375 16.21875 12.984375 13.921875 
Q 12.984375 10.40625 15.640625 8.0625 
Q 18.3125 5.71875 23.4375 5.71875 
Q 28.515625 5.71875 32.46875 7.9375 
Q 36.421875 10.15625 38.28125 14.015625 
Q 39.703125 17 39.703125 22.796875 
z
" id="ArialMT-61"/>
      <path d="M 23.390625 -21.046875 
Q 16.109375 -11.859375 11.078125 0.4375 
Q 6.0625 12.75 6.0625 25.921875 
Q 6.0625 37.546875 9.8125 48.1875 
Q 14.203125 60.546875 23.390625 72.796875 
L 29.6875 72.796875 
Q 23.78125 62.640625 21.875 58.296875 
Q 18.890625 51.5625 17.1875 44.234375 
Q 15.09375 35.109375 15.09375 25.875 
Q 15.09375 2.390625 29.6875 -21.046875 
z
" id="ArialMT-28"/>
      <path d="M 7.859375 0 
L 7.859375 71.578125 
L 39.59375 71.578125 
Q 49.171875 71.578125 54.140625 69.640625 
Q 59.125 67.71875 62.109375 62.828125 
Q 65.09375 57.953125 65.09375 52.046875 
Q 65.09375 44.4375 60.15625 39.203125 
Q 55.21875 33.984375 44.921875 32.5625 
Q 48.6875 30.765625 50.640625 29 
Q 54.78125 25.203125 58.5 19.484375 
L 70.953125 0 
L 59.03125 0 
L 49.5625 14.890625 
Q 45.40625 21.34375 42.71875 24.75 
Q 40.046875 28.171875 37.921875 29.53125 
Q 35.796875 30.90625 33.59375 31.453125 
Q 31.984375 31.78125 28.328125 31.78125 
L 17.328125 31.78125 
L 17.328125 0 
z
M 17.328125 39.984375 
L 37.703125 39.984375 
Q 44.1875 39.984375 47.84375 41.328125 
Q 51.515625 42.671875 53.421875 45.625 
Q 55.328125 48.578125 55.328125 52.046875 
Q 55.328125 57.125 51.640625 60.390625 
Q 47.953125 63.671875 39.984375 63.671875 
L 17.328125 63.671875 
z
" id="ArialMT-52"/>
      <path d="M 6.59375 0 
L 6.59375 51.859375 
L 14.5 51.859375 
L 14.5 44.484375 
Q 20.21875 53.03125 31 53.03125 
Q 35.6875 53.03125 39.625 51.34375 
Q 43.5625 49.65625 45.515625 46.921875 
Q 47.46875 44.1875 48.25 40.4375 
Q 48.734375 37.984375 48.734375 31.890625 
L 48.734375 0 
L 39.9375 0 
L 39.9375 31.546875 
Q 39.9375 36.921875 38.90625 39.578125 
Q 37.890625 42.234375 35.28125 43.8125 
Q 32.671875 45.40625 29.15625 45.40625 
Q 23.53125 45.40625 19.453125 41.84375 
Q 15.375 38.28125 15.375 28.328125 
L 15.375 0 
z
" id="ArialMT-6e"/>
      <path d="M 6.640625 61.46875 
L 6.640625 71.578125 
L 15.4375 71.578125 
L 15.4375 61.46875 
z
M 6.640625 0 
L 6.640625 51.859375 
L 15.4375 51.859375 
L 15.4375 0 
z
" id="ArialMT-69"/>
      <path d="M 7.625 0 
L 7.625 71.578125 
L 17.328125 71.578125 
L 54.9375 15.375 
L 54.9375 71.578125 
L 64.015625 71.578125 
L 64.015625 0 
L 54.296875 0 
L 16.703125 56.25 
L 16.703125 0 
z
" id="ArialMT-4e"/>
      <path d="M 8.203125 0 
L 8.203125 71.578125 
L 56.5 71.578125 
L 56.5 63.140625 
L 17.671875 63.140625 
L 17.671875 40.96875 
L 51.265625 40.96875 
L 51.265625 32.515625 
L 17.671875 32.515625 
L 17.671875 0 
z
" id="ArialMT-46"/>
      <path d="M 42.09375 16.703125 
L 51.171875 15.578125 
Q 49.03125 7.625 43.21875 3.21875 
Q 37.40625 -1.171875 28.375 -1.171875 
Q 17 -1.171875 10.328125 5.828125 
Q 3.65625 12.84375 3.65625 25.484375 
Q 3.65625 38.578125 10.390625 45.796875 
Q 17.140625 53.03125 27.875 53.03125 
Q 38.28125 53.03125 44.875 45.953125 
Q 51.46875 38.875 51.46875 26.03125 
Q 51.46875 25.25 51.421875 23.6875 
L 12.75 23.6875 
Q 13.234375 15.140625 17.578125 10.59375 
Q 21.921875 6.0625 28.421875 6.0625 
Q 33.25 6.0625 36.671875 8.59375 
Q 40.09375 11.140625 42.09375 16.703125 
M 13.234375 30.90625 
L 42.1875 30.90625 
Q 41.609375 37.453125 38.875 40.71875 
Q 34.671875 45.796875 27.984375 45.796875 
Q 21.921875 45.796875 17.796875 41.75 
Q 13.671875 37.703125 13.234375 30.90625 
" id="ArialMT-65"/>
      <path d="M 25.78125 7.859375 
L 27.046875 0.09375 
Q 23.34375 -0.6875 20.40625 -0.6875 
Q 15.625 -0.6875 12.984375 0.828125 
Q 10.359375 2.34375 9.28125 4.8125 
Q 8.203125 7.28125 8.203125 15.1875 
L 8.203125 45.015625 
L 1.765625 45.015625 
L 1.765625 51.859375 
L 8.203125 51.859375 
L 8.203125 64.703125 
L 16.9375 69.96875 
L 16.9375 51.859375 
L 25.78125 51.859375 
L 25.78125 45.015625 
L 16.9375 45.015625 
L 16.9375 14.703125 
Q 16.9375 10.9375 17.40625 9.859375 
Q 17.875 8.796875 18.921875 8.15625 
Q 19.96875 7.515625 21.921875 7.515625 
Q 23.390625 7.515625 25.78125 7.859375 
" id="ArialMT-74"/>
      <path d="M 4.984375 -4.296875 
L 13.53125 -5.5625 
Q 14.0625 -9.515625 16.5 -11.328125 
Q 19.78125 -13.765625 25.4375 -13.765625 
Q 31.546875 -13.765625 34.859375 -11.328125 
Q 38.1875 -8.890625 39.359375 -4.5 
Q 40.046875 -1.8125 39.984375 6.78125 
Q 34.234375 0 25.640625 0 
Q 14.9375 0 9.078125 7.71875 
Q 3.21875 15.4375 3.21875 26.21875 
Q 3.21875 33.640625 5.90625 39.90625 
Q 8.59375 46.1875 13.6875 49.609375 
Q 18.796875 53.03125 25.6875 53.03125 
Q 34.859375 53.03125 40.828125 45.609375 
L 40.828125 51.859375 
L 48.921875 51.859375 
L 48.921875 7.03125 
Q 48.921875 -5.078125 46.453125 -10.125 
Q 44 -15.1875 38.640625 -18.109375 
Q 33.296875 -21.046875 25.484375 -21.046875 
Q 16.21875 -21.046875 10.5 -16.875 
Q 4.78125 -12.703125 4.984375 -4.296875 
M 12.25 26.859375 
Q 12.25 16.65625 16.296875 11.96875 
Q 20.359375 7.28125 26.46875 7.28125 
Q 32.515625 7.28125 36.609375 11.9375 
Q 40.71875 16.609375 40.71875 26.5625 
Q 40.71875 36.078125 36.5 40.90625 
Q 32.28125 45.75 26.3125 45.75 
Q 20.453125 45.75 16.34375 40.984375 
Q 12.25 36.234375 12.25 26.859375 
" id="ArialMT-67"/>
      <path d="M 40.578125 0 
L 40.578125 7.625 
Q 34.515625 -1.171875 24.125 -1.171875 
Q 19.53125 -1.171875 15.546875 0.578125 
Q 11.578125 2.34375 9.640625 5 
Q 7.71875 7.671875 6.9375 11.53125 
Q 6.390625 14.109375 6.390625 19.734375 
L 6.390625 51.859375 
L 15.1875 51.859375 
L 15.1875 23.09375 
Q 15.1875 16.21875 15.71875 13.8125 
Q 16.546875 10.359375 19.234375 8.375 
Q 21.921875 6.390625 25.875 6.390625 
Q 29.828125 6.390625 33.296875 8.421875 
Q 36.765625 10.453125 38.203125 13.9375 
Q 39.65625 17.4375 39.65625 24.078125 
L 39.65625 51.859375 
L 48.4375 51.859375 
L 48.4375 0 
z
" id="ArialMT-75"/>
      <path d="M 3.328125 25.921875 
Q 3.328125 40.328125 11.328125 47.265625 
Q 18.015625 53.03125 27.640625 53.03125 
Q 38.328125 53.03125 45.109375 46.015625 
Q 51.90625 39.015625 51.90625 26.65625 
Q 51.90625 16.65625 48.90625 10.90625 
Q 45.90625 5.171875 40.15625 2 
Q 34.421875 -1.171875 27.640625 -1.171875 
Q 16.75 -1.171875 10.03125 5.8125 
Q 3.328125 12.796875 3.328125 25.921875 
M 12.359375 25.921875 
Q 12.359375 15.96875 16.703125 11.015625 
Q 21.046875 6.0625 27.640625 6.0625 
Q 34.1875 6.0625 38.53125 11.03125 
Q 42.875 16.015625 42.875 26.21875 
Q 42.875 35.84375 38.5 40.796875 
Q 34.125 45.75 27.640625 45.75 
Q 21.046875 45.75 16.703125 40.8125 
Q 12.359375 35.890625 12.359375 25.921875 
" id="ArialMT-6f"/>
      <path d="M 41.21875 28.078125 
L 41.21875 36.46875 
L 71.53125 36.53125 
L 71.53125 9.96875 
Q 64.546875 4.390625 57.125 1.578125 
Q 49.703125 -1.21875 41.890625 -1.21875 
Q 31.34375 -1.21875 22.71875 3.296875 
Q 14.109375 7.8125 9.71875 16.359375 
Q 5.328125 24.90625 5.328125 35.453125 
Q 5.328125 45.90625 9.6875 54.953125 
Q 14.0625 64.015625 22.265625 68.40625 
Q 30.46875 72.796875 41.15625 72.796875 
Q 48.921875 72.796875 55.1875 70.28125 
Q 61.46875 67.78125 65.03125 63.28125 
Q 68.609375 58.796875 70.453125 51.5625 
L 61.921875 49.21875 
Q 60.296875 54.6875 57.90625 57.8125 
Q 55.515625 60.9375 51.0625 62.8125 
Q 46.625 64.703125 41.21875 64.703125 
Q 34.71875 64.703125 29.984375 62.71875 
Q 25.25 60.75 22.34375 57.515625 
Q 19.4375 54.296875 17.828125 50.4375 
Q 15.09375 43.796875 15.09375 36.03125 
Q 15.09375 26.46875 18.390625 20.015625 
Q 21.6875 13.578125 27.984375 10.453125 
Q 34.28125 7.328125 41.359375 7.328125 
Q 47.515625 7.328125 53.375 9.6875 
Q 59.234375 12.0625 62.25 14.75 
L 62.25 28.078125 
z
" id="ArialMT-47"/>
      <path d="M 0 -1.21875 
L 20.75 72.796875 
L 27.78125 72.796875 
L 7.078125 -1.21875 
z
" id="ArialMT-2f"/>
      <path d="M 12.359375 -21.046875 
L 6.0625 -21.046875 
Q 20.65625 2.390625 20.65625 25.875 
Q 20.65625 35.0625 18.5625 44.09375 
Q 16.890625 51.421875 13.921875 58.15625 
Q 12.015625 62.546875 6.0625 72.796875 
L 12.359375 72.796875 
Q 21.53125 60.546875 25.921875 48.1875 
Q 29.6875 37.546875 29.6875 25.921875 
Q 29.6875 12.75 24.625 0.4375 
Q 19.578125 -11.859375 12.359375 -21.046875 
" id="ArialMT-29"/>
      <path d="M 6.390625 0 
L 6.390625 71.578125 
L 15.1875 71.578125 
L 15.1875 0 
z
" id="ArialMT-6c"/>
     </defs>
     <g style="fill:#262626;" transform="translate(255.525 903.622675)scale(0.4 -0.4)">
      <use xlink:href="#ArialMT-6c"/>
      <use x="22.216796875" xlink:href="#ArialMT-6f"/>
      <use x="77.83203125" xlink:href="#ArialMT-67"/>
      <use x="133.447265625" xlink:href="#ArialMT-28"/>
      <use x="166.748046875" xlink:href="#ArialMT-4e"/>
      <use x="238.96484375" xlink:href="#ArialMT-47"/>
      <use x="316.748046875" xlink:href="#ArialMT-2f"/>
      <use x="344.53125" xlink:href="#ArialMT-46"/>
      <use x="405.615234375" xlink:href="#ArialMT-75"/>
      <use x="461.23046875" xlink:href="#ArialMT-6e"/>
      <use x="516.845703125" xlink:href="#ArialMT-74"/>
      <use x="544.62890625" xlink:href="#ArialMT-69"/>
      <use x="566.845703125" xlink:href="#ArialMT-6f"/>
      <use x="622.4609375" xlink:href="#ArialMT-6e"/>
      <use x="678.076171875" xlink:href="#ArialMT-61"/>
      <use x="733.69140625" xlink:href="#ArialMT-6c"/>
      <use x="755.908203125" xlink:href="#ArialMT-20"/>
      <use x="783.69140625" xlink:href="#ArialMT-52"/>
      <use x="855.908203125" xlink:href="#ArialMT-65"/>
      <use x="911.5234375" xlink:href="#ArialMT-67"/>
      <use x="967.138671875" xlink:href="#ArialMT-69"/>
      <use x="989.35546875" xlink:href="#ArialMT-6f"/>
      <use x="1044.970703125" xlink:href="#ArialMT-6e"/>
      <use x="1100.5859375" xlink:href="#ArialMT-29"/>
     </g>
    </g>
   </g>
   <g id="matplotlib.axis_2">
    <g id="ytick_1">
     <g id="line2d_16"/>
     <g id="line2d_17"/>
     <g id="text_7">
      <!-- Holocentriformes -->
      <defs>
       <path d="M 8.6875 0 
L 8.6875 45.015625 
L 0.921875 45.015625 
L 0.921875 51.859375 
L 8.6875 51.859375 
L 8.6875 57.375 
Q 8.6875 62.59375 9.625 65.140625 
Q 10.890625 68.5625 14.078125 70.671875 
Q 17.28125 72.796875 23.046875 72.796875 
Q 26.765625 72.796875 31.25 71.921875 
L 29.9375 64.265625 
Q 27.203125 64.75 24.75 64.75 
Q 20.75 64.75 19.09375 63.03125 
Q 17.4375 61.328125 17.4375 56.640625 
L 17.4375 51.859375 
L 27.546875 51.859375 
L 27.546875 45.015625 
L 17.4375 45.015625 
L 17.4375 0 
z
" id="ArialMT-66"/>
       <path d="M 6.5 0 
L 6.5 51.859375 
L 14.40625 51.859375 
L 14.40625 44 
Q 17.4375 49.515625 20 51.265625 
Q 22.5625 53.03125 25.640625 53.03125 
Q 30.078125 53.03125 34.671875 50.203125 
L 31.640625 42.046875 
Q 28.421875 43.953125 25.203125 43.953125 
Q 22.3125 43.953125 20.015625 42.21875 
Q 17.71875 40.484375 16.75 37.40625 
Q 15.28125 32.71875 15.28125 27.15625 
L 15.28125 0 
z
" id="ArialMT-72"/>
       <path d="M 3.078125 15.484375 
L 11.765625 16.84375 
Q 12.5 11.625 15.84375 8.84375 
Q 19.1875 6.0625 25.203125 6.0625 
Q 31.25 6.0625 34.171875 8.515625 
Q 37.109375 10.984375 37.109375 14.3125 
Q 37.109375 17.28125 34.515625 19 
Q 32.71875 20.171875 25.53125 21.96875 
Q 15.875 24.421875 12.140625 26.203125 
Q 8.40625 27.984375 6.46875 31.125 
Q 4.546875 34.28125 4.546875 38.09375 
Q 4.546875 41.546875 6.125 44.5 
Q 7.71875 47.46875 10.453125 49.421875 
Q 12.5 50.921875 16.03125 51.96875 
Q 19.578125 53.03125 23.640625 53.03125 
Q 29.734375 53.03125 34.34375 51.265625 
Q 38.96875 49.515625 41.15625 46.5 
Q 43.359375 43.5 44.1875 38.484375 
L 35.59375 37.3125 
Q 35.015625 41.3125 32.203125 43.546875 
Q 29.390625 45.796875 24.265625 45.796875 
Q 18.21875 45.796875 15.625 43.796875 
Q 13.03125 41.796875 13.03125 39.109375 
Q 13.03125 37.40625 14.109375 36.03125 
Q 15.1875 34.625 17.484375 33.6875 
Q 18.796875 33.203125 25.25 31.453125 
Q 34.578125 28.953125 38.25 27.359375 
Q 41.9375 25.78125 44.03125 22.75 
Q 46.140625 19.734375 46.140625 15.234375 
Q 46.140625 10.84375 43.578125 6.953125 
Q 41.015625 3.078125 36.171875 0.953125 
Q 31.34375 -1.171875 25.25 -1.171875 
Q 15.140625 -1.171875 9.84375 3.03125 
Q 4.546875 7.234375 3.078125 15.484375 
" id="ArialMT-73"/>
       <path d="M 40.4375 19 
L 49.078125 17.875 
Q 47.65625 8.9375 41.8125 3.875 
Q 35.984375 -1.171875 27.484375 -1.171875 
Q 16.84375 -1.171875 10.375 5.78125 
Q 3.90625 12.75 3.90625 25.734375 
Q 3.90625 34.125 6.6875 40.421875 
Q 9.46875 46.734375 15.15625 49.875 
Q 20.84375 53.03125 27.546875 53.03125 
Q 35.984375 53.03125 41.359375 48.75 
Q 46.734375 44.484375 48.25 36.625 
L 39.703125 35.296875 
Q 38.484375 40.53125 35.375 43.15625 
Q 32.28125 45.796875 27.875 45.796875 
Q 21.234375 45.796875 17.078125 41.03125 
Q 12.9375 36.28125 12.9375 25.984375 
Q 12.9375 15.53125 16.9375 10.796875 
Q 20.953125 6.0625 27.390625 6.0625 
Q 32.5625 6.0625 36.03125 9.234375 
Q 39.5 12.40625 40.4375 19 
" id="ArialMT-63"/>
       <path d="M 8.015625 0 
L 8.015625 71.578125 
L 17.484375 71.578125 
L 17.484375 42.1875 
L 54.6875 42.1875 
L 54.6875 71.578125 
L 64.15625 71.578125 
L 64.15625 0 
L 54.6875 0 
L 54.6875 33.734375 
L 17.484375 33.734375 
L 17.484375 0 
z
" id="ArialMT-48"/>
       <path d="M 6.59375 0 
L 6.59375 51.859375 
L 14.453125 51.859375 
L 14.453125 44.578125 
Q 16.890625 48.390625 20.9375 50.703125 
Q 25 53.03125 30.171875 53.03125 
Q 35.9375 53.03125 39.625 50.640625 
Q 43.3125 48.25 44.828125 43.953125 
Q 50.984375 53.03125 60.84375 53.03125 
Q 68.5625 53.03125 72.703125 48.75 
Q 76.859375 44.484375 76.859375 35.59375 
L 76.859375 0 
L 68.109375 0 
L 68.109375 32.671875 
Q 68.109375 37.9375 67.25 40.25 
Q 66.40625 42.578125 64.15625 43.984375 
Q 61.921875 45.40625 58.890625 45.40625 
Q 53.421875 45.40625 49.796875 41.765625 
Q 46.1875 38.140625 46.1875 30.125 
L 46.1875 0 
L 37.40625 0 
L 37.40625 33.6875 
Q 37.40625 39.546875 35.25 42.46875 
Q 33.109375 45.40625 28.21875 45.40625 
Q 24.515625 45.40625 21.359375 43.453125 
Q 18.21875 41.5 16.796875 37.734375 
Q 15.375 33.984375 15.375 26.90625 
L 15.375 0 
z
" id="ArialMT-6d"/>
      </defs>
      <g style="fill:#262626;" transform="translate(113.1512 47.8208301136)scale(0.192 -0.192)">
       <use xlink:href="#ArialMT-48"/>
       <use x="72.216796875" xlink:href="#ArialMT-6f"/>
       <use x="127.83203125" xlink:href="#ArialMT-6c"/>
       <use x="150.048828125" xlink:href="#ArialMT-6f"/>
       <use x="205.6640625" xlink:href="#ArialMT-63"/>
       <use x="255.6640625" xlink:href="#ArialMT-65"/>
       <use x="311.279296875" xlink:href="#ArialMT-6e"/>
       <use x="366.89453125" xlink:href="#ArialMT-74"/>
       <use x="394.677734375" xlink:href="#ArialMT-72"/>
       <use x="427.978515625" xlink:href="#ArialMT-69"/>
       <use x="450.1953125" xlink:href="#ArialMT-66"/>
       <use x="477.978515625" xlink:href="#ArialMT-6f"/>
       <use x="533.59375" xlink:href="#ArialMT-72"/>
       <use x="566.89453125" xlink:href="#ArialMT-6d"/>
       <use x="650.1953125" xlink:href="#ArialMT-65"/>
       <use x="705.810546875" xlink:href="#ArialMT-73"/>
      </g>
     </g>
    </g>
    <g id="ytick_2">
     <g id="line2d_18"/>
     <g id="line2d_19"/>
     <g id="text_8">
      <!-- Kurtiformes -->
      <defs>
       <path d="M 7.328125 0 
L 7.328125 71.578125 
L 16.796875 71.578125 
L 16.796875 36.078125 
L 52.34375 71.578125 
L 65.1875 71.578125 
L 35.15625 42.578125 
L 66.5 0 
L 54 0 
L 28.515625 36.234375 
L 16.796875 24.8125 
L 16.796875 0 
z
" id="ArialMT-4b"/>
      </defs>
      <g style="fill:#262626;" transform="translate(160.1072 83.7690903409)scale(0.192 -0.192)">
       <use xlink:href="#ArialMT-4b"/>
       <use x="66.69921875" xlink:href="#ArialMT-75"/>
       <use x="122.314453125" xlink:href="#ArialMT-72"/>
       <use x="155.615234375" xlink:href="#ArialMT-74"/>
       <use x="183.3984375" xlink:href="#ArialMT-69"/>
       <use x="205.615234375" xlink:href="#ArialMT-66"/>
       <use x="233.3984375" xlink:href="#ArialMT-6f"/>
       <use x="289.013671875" xlink:href="#ArialMT-72"/>
       <use x="322.314453125" xlink:href="#ArialMT-6d"/>
       <use x="405.615234375" xlink:href="#ArialMT-65"/>
       <use x="461.23046875" xlink:href="#ArialMT-73"/>
      </g>
     </g>
    </g>
    <g id="ytick_3">
     <g id="line2d_20"/>
     <g id="line2d_21"/>
     <g id="text_9">
      <!-- Gobiiformes -->
      <defs>
       <path d="M 14.703125 0 
L 6.546875 0 
L 6.546875 71.578125 
L 15.328125 71.578125 
L 15.328125 46.046875 
Q 20.90625 53.03125 29.546875 53.03125 
Q 34.328125 53.03125 38.59375 51.09375 
Q 42.875 49.171875 45.625 45.671875 
Q 48.390625 42.1875 49.953125 37.25 
Q 51.515625 32.328125 51.515625 26.703125 
Q 51.515625 13.375 44.921875 6.09375 
Q 38.328125 -1.171875 29.109375 -1.171875 
Q 19.921875 -1.171875 14.703125 6.5 
z
M 14.59375 26.3125 
Q 14.59375 17 17.140625 12.84375 
Q 21.296875 6.0625 28.375 6.0625 
Q 34.125 6.0625 38.328125 11.0625 
Q 42.53125 16.0625 42.53125 25.984375 
Q 42.53125 36.140625 38.5 40.96875 
Q 34.46875 45.796875 28.765625 45.796875 
Q 23 45.796875 18.796875 40.796875 
Q 14.59375 35.796875 14.59375 26.3125 
" id="ArialMT-62"/>
      </defs>
      <g style="fill:#262626;" transform="translate(154.7642 119.717350568)scale(0.192 -0.192)">
       <use xlink:href="#ArialMT-47"/>
       <use x="77.783203125" xlink:href="#ArialMT-6f"/>
       <use x="133.3984375" xlink:href="#ArialMT-62"/>
       <use x="189.013671875" xlink:href="#ArialMT-69"/>
       <use x="211.23046875" xlink:href="#ArialMT-69"/>
       <use x="233.447265625" xlink:href="#ArialMT-66"/>
       <use x="261.23046875" xlink:href="#ArialMT-6f"/>
       <use x="316.845703125" xlink:href="#ArialMT-72"/>
       <use x="350.146484375" xlink:href="#ArialMT-6d"/>
       <use x="433.447265625" xlink:href="#ArialMT-65"/>
       <use x="489.0625" xlink:href="#ArialMT-73"/>
      </g>
     </g>
    </g>
    <g id="ytick_4">
     <g id="line2d_22"/>
     <g id="line2d_23"/>
     <g id="text_10">
      <!-- IncertaeSedis -->
      <defs>
       <path d="M 40.234375 0 
L 40.234375 6.546875 
Q 35.296875 -1.171875 25.734375 -1.171875 
Q 19.53125 -1.171875 14.328125 2.25 
Q 9.125 5.671875 6.265625 11.796875 
Q 3.421875 17.921875 3.421875 25.875 
Q 3.421875 33.640625 6 39.96875 
Q 8.59375 46.296875 13.765625 49.65625 
Q 18.953125 53.03125 25.34375 53.03125 
Q 30.03125 53.03125 33.6875 51.046875 
Q 37.359375 49.078125 39.65625 45.90625 
L 39.65625 71.578125 
L 48.390625 71.578125 
L 48.390625 0 
z
M 12.453125 25.875 
Q 12.453125 15.921875 16.640625 10.984375 
Q 20.84375 6.0625 26.5625 6.0625 
Q 32.328125 6.0625 36.34375 10.765625 
Q 40.375 15.484375 40.375 25.140625 
Q 40.375 35.796875 36.265625 40.765625 
Q 32.171875 45.75 26.171875 45.75 
Q 20.3125 45.75 16.375 40.96875 
Q 12.453125 36.1875 12.453125 25.875 
" id="ArialMT-64"/>
       <path d="M 4.5 23 
L 13.421875 23.78125 
Q 14.0625 18.40625 16.375 14.96875 
Q 18.703125 11.53125 23.578125 9.40625 
Q 28.46875 7.28125 34.578125 7.28125 
Q 39.984375 7.28125 44.140625 8.890625 
Q 48.296875 10.5 50.3125 13.296875 
Q 52.34375 16.109375 52.34375 19.4375 
Q 52.34375 22.796875 50.390625 25.3125 
Q 48.4375 27.828125 43.953125 29.546875 
Q 41.0625 30.671875 31.203125 33.03125 
Q 21.34375 35.40625 17.390625 37.5 
Q 12.25 40.1875 9.734375 44.15625 
Q 7.234375 48.140625 7.234375 53.078125 
Q 7.234375 58.5 10.296875 63.203125 
Q 13.375 67.921875 19.28125 70.359375 
Q 25.203125 72.796875 32.421875 72.796875 
Q 40.375 72.796875 46.453125 70.234375 
Q 52.546875 67.671875 55.8125 62.6875 
Q 59.078125 57.71875 59.328125 51.421875 
L 50.25 50.734375 
Q 49.515625 57.515625 45.28125 60.984375 
Q 41.0625 64.453125 32.8125 64.453125 
Q 24.21875 64.453125 20.28125 61.296875 
Q 16.359375 58.15625 16.359375 53.71875 
Q 16.359375 49.859375 19.140625 47.359375 
Q 21.875 44.875 33.421875 42.265625 
Q 44.96875 39.65625 49.265625 37.703125 
Q 55.515625 34.8125 58.484375 30.390625 
Q 61.46875 25.984375 61.46875 20.21875 
Q 61.46875 14.5 58.203125 9.4375 
Q 54.9375 4.390625 48.796875 1.578125 
Q 42.671875 -1.21875 35.015625 -1.21875 
Q 25.296875 -1.21875 18.71875 1.609375 
Q 12.15625 4.4375 8.421875 10.125 
Q 4.6875 15.828125 4.5 23 
" id="ArialMT-53"/>
       <path d="M 9.328125 0 
L 9.328125 71.578125 
L 18.796875 71.578125 
L 18.796875 0 
z
" id="ArialMT-49"/>
      </defs>
      <g style="fill:#262626;" transform="translate(140.8622 155.665610795)scale(0.192 -0.192)">
       <use xlink:href="#ArialMT-49"/>
       <use x="27.783203125" xlink:href="#ArialMT-6e"/>
       <use x="83.3984375" xlink:href="#ArialMT-63"/>
       <use x="133.3984375" xlink:href="#ArialMT-65"/>
       <use x="189.013671875" xlink:href="#ArialMT-72"/>
       <use x="222.314453125" xlink:href="#ArialMT-74"/>
       <use x="250.09765625" xlink:href="#ArialMT-61"/>
       <use x="305.712890625" xlink:href="#ArialMT-65"/>
       <use x="361.328125" xlink:href="#ArialMT-53"/>
       <use x="428.02734375" xlink:href="#ArialMT-65"/>
       <use x="483.642578125" xlink:href="#ArialMT-64"/>
       <use x="539.2578125" xlink:href="#ArialMT-69"/>
       <use x="561.474609375" xlink:href="#ArialMT-73"/>
      </g>
     </g>
    </g>
    <g id="ytick_5">
     <g id="line2d_24"/>
     <g id="line2d_25"/>
     <g id="text_11">
      <!-- Mugiliformes -->
      <defs>
       <path d="M 7.421875 0 
L 7.421875 71.578125 
L 21.6875 71.578125 
L 38.625 20.90625 
Q 40.96875 13.8125 42.046875 10.296875 
Q 43.265625 14.203125 45.84375 21.78125 
L 62.984375 71.578125 
L 75.734375 71.578125 
L 75.734375 0 
L 66.609375 0 
L 66.609375 59.90625 
L 45.796875 0 
L 37.25 0 
L 16.546875 60.9375 
L 16.546875 0 
z
" id="ArialMT-4d"/>
      </defs>
      <g style="fill:#262626;" transform="translate(149.4392 191.618371023)scale(0.192 -0.192)">
       <use xlink:href="#ArialMT-4d"/>
       <use x="83.30078125" xlink:href="#ArialMT-75"/>
       <use x="138.916015625" xlink:href="#ArialMT-67"/>
       <use x="194.53125" xlink:href="#ArialMT-69"/>
       <use x="216.748046875" xlink:href="#ArialMT-6c"/>
       <use x="238.96484375" xlink:href="#ArialMT-69"/>
       <use x="261.181640625" xlink:href="#ArialMT-66"/>
       <use x="288.96484375" xlink:href="#ArialMT-6f"/>
       <use x="344.580078125" xlink:href="#ArialMT-72"/>
       <use x="377.880859375" xlink:href="#ArialMT-6d"/>
       <use x="461.181640625" xlink:href="#ArialMT-65"/>
       <use x="516.796875" xlink:href="#ArialMT-73"/>
      </g>
     </g>
    </g>
    <g id="ytick_6">
     <g id="line2d_26"/>
     <g id="line2d_27"/>
     <g id="text_12">
      <!-- Cichliformes -->
      <defs>
       <path d="M 6.59375 0 
L 6.59375 71.578125 
L 15.375 71.578125 
L 15.375 45.90625 
Q 21.53125 53.03125 30.90625 53.03125 
Q 36.671875 53.03125 40.921875 50.75 
Q 45.171875 48.484375 47 44.484375 
Q 48.828125 40.484375 48.828125 32.859375 
L 48.828125 0 
L 40.046875 0 
L 40.046875 32.859375 
Q 40.046875 39.453125 37.1875 42.453125 
Q 34.328125 45.453125 29.109375 45.453125 
Q 25.203125 45.453125 21.75 43.421875 
Q 18.3125 41.40625 16.84375 37.9375 
Q 15.375 34.46875 15.375 28.375 
L 15.375 0 
z
" id="ArialMT-68"/>
       <path d="M 58.796875 25.09375 
L 68.265625 22.703125 
Q 65.28125 11.03125 57.546875 4.90625 
Q 49.8125 -1.21875 38.625 -1.21875 
Q 27.046875 -1.21875 19.796875 3.484375 
Q 12.546875 8.203125 8.765625 17.140625 
Q 4.984375 26.078125 4.984375 36.328125 
Q 4.984375 47.515625 9.25 55.828125 
Q 13.53125 64.15625 21.40625 68.46875 
Q 29.296875 72.796875 38.765625 72.796875 
Q 49.515625 72.796875 56.828125 67.328125 
Q 64.15625 61.859375 67.046875 51.953125 
L 57.71875 49.75 
Q 55.21875 57.5625 50.484375 61.125 
Q 45.75 64.703125 38.578125 64.703125 
Q 30.328125 64.703125 24.78125 60.734375 
Q 19.234375 56.78125 16.984375 50.109375 
Q 14.75 43.453125 14.75 36.375 
Q 14.75 27.25 17.40625 20.4375 
Q 20.0625 13.625 25.671875 10.25 
Q 31.296875 6.890625 37.84375 6.890625 
Q 45.796875 6.890625 51.3125 11.46875 
Q 56.84375 16.0625 58.796875 25.09375 
" id="ArialMT-43"/>
      </defs>
      <g style="fill:#262626;" transform="translate(152.6432 227.56213125)scale(0.192 -0.192)">
       <use xlink:href="#ArialMT-43"/>
       <use x="72.216796875" xlink:href="#ArialMT-69"/>
       <use x="94.43359375" xlink:href="#ArialMT-63"/>
       <use x="144.43359375" xlink:href="#ArialMT-68"/>
       <use x="200.048828125" xlink:href="#ArialMT-6c"/>
       <use x="222.265625" xlink:href="#ArialMT-69"/>
       <use x="244.482421875" xlink:href="#ArialMT-66"/>
       <use x="272.265625" xlink:href="#ArialMT-6f"/>
       <use x="327.880859375" xlink:href="#ArialMT-72"/>
       <use x="361.181640625" xlink:href="#ArialMT-6d"/>
       <use x="444.482421875" xlink:href="#ArialMT-65"/>
       <use x="500.09765625" xlink:href="#ArialMT-73"/>
      </g>
     </g>
    </g>
    <g id="ytick_7">
     <g id="line2d_28"/>
     <g id="line2d_29"/>
     <g id="text_13">
      <!-- Blenniiformes -->
      <defs>
       <path d="M 7.328125 0 
L 7.328125 71.578125 
L 34.1875 71.578125 
Q 42.390625 71.578125 47.34375 69.40625 
Q 52.296875 67.234375 55.09375 62.71875 
Q 57.90625 58.203125 57.90625 53.265625 
Q 57.90625 48.6875 55.421875 44.625 
Q 52.9375 40.578125 47.90625 38.09375 
Q 54.390625 36.1875 57.875 31.59375 
Q 61.375 27 61.375 20.75 
Q 61.375 15.71875 59.25 11.390625 
Q 57.125 7.078125 54 4.734375 
Q 50.875 2.390625 46.15625 1.1875 
Q 41.453125 0 34.625 0 
z
M 16.796875 41.5 
L 32.28125 41.5 
Q 38.578125 41.5 41.3125 42.328125 
Q 44.921875 43.40625 46.75 45.890625 
Q 48.578125 48.390625 48.578125 52.15625 
Q 48.578125 55.71875 46.875 58.421875 
Q 45.171875 61.140625 41.984375 62.140625 
Q 38.8125 63.140625 31.109375 63.140625 
L 16.796875 63.140625 
z
M 16.796875 8.453125 
L 34.625 8.453125 
Q 39.203125 8.453125 41.0625 8.796875 
Q 44.34375 9.375 46.53125 10.734375 
Q 48.734375 12.109375 50.140625 14.71875 
Q 51.5625 17.328125 51.5625 20.75 
Q 51.5625 24.75 49.515625 27.703125 
Q 47.46875 30.671875 43.828125 31.859375 
Q 40.1875 33.0625 33.34375 33.0625 
L 16.796875 33.0625 
z
" id="ArialMT-42"/>
      </defs>
      <g style="fill:#262626;" transform="translate(141.9482 263.510391477)scale(0.192 -0.192)">
       <use xlink:href="#ArialMT-42"/>
       <use x="66.69921875" xlink:href="#ArialMT-6c"/>
       <use x="88.916015625" xlink:href="#ArialMT-65"/>
       <use x="144.53125" xlink:href="#ArialMT-6e"/>
       <use x="200.146484375" xlink:href="#ArialMT-6e"/>
       <use x="255.76171875" xlink:href="#ArialMT-69"/>
       <use x="277.978515625" xlink:href="#ArialMT-69"/>
       <use x="300.1953125" xlink:href="#ArialMT-66"/>
       <use x="327.978515625" xlink:href="#ArialMT-6f"/>
       <use x="383.59375" xlink:href="#ArialMT-72"/>
       <use x="416.89453125" xlink:href="#ArialMT-6d"/>
       <use x="500.1953125" xlink:href="#ArialMT-65"/>
       <use x="555.810546875" xlink:href="#ArialMT-73"/>
      </g>
     </g>
    </g>
    <g id="ytick_8">
     <g id="line2d_30"/>
     <g id="line2d_31"/>
     <g id="text_14">
      <!-- Gobiesociformes -->
      <g style="fill:#262626;" transform="translate(114.2102 299.458651705)scale(0.192 -0.192)">
       <use xlink:href="#ArialMT-47"/>
       <use x="77.783203125" xlink:href="#ArialMT-6f"/>
       <use x="133.3984375" xlink:href="#ArialMT-62"/>
       <use x="189.013671875" xlink:href="#ArialMT-69"/>
       <use x="211.23046875" xlink:href="#ArialMT-65"/>
       <use x="266.845703125" xlink:href="#ArialMT-73"/>
       <use x="316.845703125" xlink:href="#ArialMT-6f"/>
       <use x="372.4609375" xlink:href="#ArialMT-63"/>
       <use x="422.4609375" xlink:href="#ArialMT-69"/>
       <use x="444.677734375" xlink:href="#ArialMT-66"/>
       <use x="472.4609375" xlink:href="#ArialMT-6f"/>
       <use x="528.076171875" xlink:href="#ArialMT-72"/>
       <use x="561.376953125" xlink:href="#ArialMT-6d"/>
       <use x="644.677734375" xlink:href="#ArialMT-65"/>
       <use x="700.29296875" xlink:href="#ArialMT-73"/>
      </g>
     </g>
    </g>
    <g id="ytick_9">
     <g id="line2d_32"/>
     <g id="line2d_33"/>
     <g id="text_15">
      <!-- Atheriniformes -->
      <defs>
       <path d="M -0.140625 0 
L 27.34375 71.578125 
L 37.546875 71.578125 
L 66.84375 0 
L 56.0625 0 
L 47.703125 21.6875 
L 17.78125 21.6875 
L 9.90625 0 
z
M 20.515625 29.390625 
L 44.78125 29.390625 
L 37.3125 49.21875 
Q 33.890625 58.25 32.234375 64.0625 
Q 30.859375 57.171875 28.375 50.390625 
z
" id="ArialMT-41"/>
      </defs>
      <g style="fill:#262626;" transform="translate(134.4872 335.406911932)scale(0.192 -0.192)">
       <use xlink:href="#ArialMT-41"/>
       <use x="66.69921875" xlink:href="#ArialMT-74"/>
       <use x="94.482421875" xlink:href="#ArialMT-68"/>
       <use x="150.09765625" xlink:href="#ArialMT-65"/>
       <use x="205.712890625" xlink:href="#ArialMT-72"/>
       <use x="239.013671875" xlink:href="#ArialMT-69"/>
       <use x="261.23046875" xlink:href="#ArialMT-6e"/>
       <use x="316.845703125" xlink:href="#ArialMT-69"/>
       <use x="339.0625" xlink:href="#ArialMT-66"/>
       <use x="366.845703125" xlink:href="#ArialMT-6f"/>
       <use x="422.4609375" xlink:href="#ArialMT-72"/>
       <use x="455.76171875" xlink:href="#ArialMT-6d"/>
       <use x="539.0625" xlink:href="#ArialMT-65"/>
       <use x="594.677734375" xlink:href="#ArialMT-73"/>
      </g>
     </g>
    </g>
    <g id="ytick_10">
     <g id="line2d_34"/>
     <g id="line2d_35"/>
     <g id="text_16">
      <!-- Cyprinodontiformes -->
      <defs>
       <path d="M 6.203125 -19.96875 
L 5.21875 -11.71875 
Q 8.109375 -12.5 10.25 -12.5 
Q 13.1875 -12.5 14.9375 -11.515625 
Q 16.703125 -10.546875 17.828125 -8.796875 
Q 18.65625 -7.46875 20.515625 -2.25 
Q 20.75 -1.515625 21.296875 -0.09375 
L 1.609375 51.859375 
L 11.078125 51.859375 
L 21.875 21.828125 
Q 23.96875 16.109375 25.640625 9.8125 
Q 27.15625 15.875 29.25 21.625 
L 40.328125 51.859375 
L 49.125 51.859375 
L 29.390625 -0.875 
Q 26.21875 -9.421875 24.46875 -12.640625 
Q 22.125 -17 19.09375 -19.015625 
Q 16.0625 -21.046875 11.859375 -21.046875 
Q 9.328125 -21.046875 6.203125 -19.96875 
" id="ArialMT-79"/>
       <path d="M 6.59375 -19.875 
L 6.59375 51.859375 
L 14.59375 51.859375 
L 14.59375 45.125 
Q 17.4375 49.078125 21 51.046875 
Q 24.5625 53.03125 29.640625 53.03125 
Q 36.28125 53.03125 41.359375 49.609375 
Q 46.4375 46.1875 49.015625 39.953125 
Q 51.609375 33.734375 51.609375 26.3125 
Q 51.609375 18.359375 48.75 11.984375 
Q 45.90625 5.609375 40.453125 2.21875 
Q 35.015625 -1.171875 29 -1.171875 
Q 24.609375 -1.171875 21.109375 0.6875 
Q 17.625 2.546875 15.375 5.375 
L 15.375 -19.875 
z
M 14.546875 25.640625 
Q 14.546875 15.625 18.59375 10.84375 
Q 22.65625 6.0625 28.421875 6.0625 
Q 34.28125 6.0625 38.453125 11.015625 
Q 42.625 15.96875 42.625 26.375 
Q 42.625 36.28125 38.546875 41.203125 
Q 34.46875 46.140625 28.8125 46.140625 
Q 23.1875 46.140625 18.859375 40.890625 
Q 14.546875 35.640625 14.546875 25.640625 
" id="ArialMT-70"/>
      </defs>
      <g style="fill:#262626;" transform="translate(91.7972 371.359672159)scale(0.192 -0.192)">
       <use xlink:href="#ArialMT-43"/>
       <use x="72.216796875" xlink:href="#ArialMT-79"/>
       <use x="122.216796875" xlink:href="#ArialMT-70"/>
       <use x="177.83203125" xlink:href="#ArialMT-72"/>
       <use x="211.1328125" xlink:href="#ArialMT-69"/>
       <use x="233.349609375" xlink:href="#ArialMT-6e"/>
       <use x="288.96484375" xlink:href="#ArialMT-6f"/>
       <use x="344.580078125" xlink:href="#ArialMT-64"/>
       <use x="400.1953125" xlink:href="#ArialMT-6f"/>
       <use x="455.810546875" xlink:href="#ArialMT-6e"/>
       <use x="511.42578125" xlink:href="#ArialMT-74"/>
       <use x="539.208984375" xlink:href="#ArialMT-69"/>
       <use x="561.42578125" xlink:href="#ArialMT-66"/>
       <use x="589.208984375" xlink:href="#ArialMT-6f"/>
       <use x="644.82421875" xlink:href="#ArialMT-72"/>
       <use x="678.125" xlink:href="#ArialMT-6d"/>
       <use x="761.42578125" xlink:href="#ArialMT-65"/>
       <use x="817.041015625" xlink:href="#ArialMT-73"/>
      </g>
     </g>
    </g>
    <g id="ytick_11">
     <g id="line2d_36"/>
     <g id="line2d_37"/>
     <g id="text_17">
      <!-- Synbranchiformes -->
      <g style="fill:#262626;" transform="translate(103.5332 407.307932386)scale(0.192 -0.192)">
       <use xlink:href="#ArialMT-53"/>
       <use x="66.69921875" xlink:href="#ArialMT-79"/>
       <use x="116.69921875" xlink:href="#ArialMT-6e"/>
       <use x="172.314453125" xlink:href="#ArialMT-62"/>
       <use x="227.9296875" xlink:href="#ArialMT-72"/>
       <use x="261.23046875" xlink:href="#ArialMT-61"/>
       <use x="316.845703125" xlink:href="#ArialMT-6e"/>
       <use x="372.4609375" xlink:href="#ArialMT-63"/>
       <use x="422.4609375" xlink:href="#ArialMT-68"/>
       <use x="478.076171875" xlink:href="#ArialMT-69"/>
       <use x="500.29296875" xlink:href="#ArialMT-66"/>
       <use x="528.076171875" xlink:href="#ArialMT-6f"/>
       <use x="583.69140625" xlink:href="#ArialMT-72"/>
       <use x="616.9921875" xlink:href="#ArialMT-6d"/>
       <use x="700.29296875" xlink:href="#ArialMT-65"/>
       <use x="755.908203125" xlink:href="#ArialMT-73"/>
      </g>
     </g>
    </g>
    <g id="ytick_12">
     <g id="line2d_38"/>
     <g id="line2d_39"/>
     <g id="text_18">
      <!-- Carangiformes -->
      <g style="fill:#262626;" transform="translate(132.3512 443.256192614)scale(0.192 -0.192)">
       <use xlink:href="#ArialMT-43"/>
       <use x="72.216796875" xlink:href="#ArialMT-61"/>
       <use x="127.83203125" xlink:href="#ArialMT-72"/>
       <use x="161.1328125" xlink:href="#ArialMT-61"/>
       <use x="216.748046875" xlink:href="#ArialMT-6e"/>
       <use x="272.36328125" xlink:href="#ArialMT-67"/>
       <use x="327.978515625" xlink:href="#ArialMT-69"/>
       <use x="350.1953125" xlink:href="#ArialMT-66"/>
       <use x="377.978515625" xlink:href="#ArialMT-6f"/>
       <use x="433.59375" xlink:href="#ArialMT-72"/>
       <use x="466.89453125" xlink:href="#ArialMT-6d"/>
       <use x="550.1953125" xlink:href="#ArialMT-65"/>
       <use x="605.810546875" xlink:href="#ArialMT-73"/>
      </g>
     </g>
    </g>
    <g id="ytick_13">
     <g id="line2d_40"/>
     <g id="line2d_41"/>
     <g id="text_19">
      <!-- Anabantiformes -->
      <g style="fill:#262626;" transform="translate(123.7922 479.199952841)scale(0.192 -0.192)">
       <use xlink:href="#ArialMT-41"/>
       <use x="66.69921875" xlink:href="#ArialMT-6e"/>
       <use x="122.314453125" xlink:href="#ArialMT-61"/>
       <use x="177.9296875" xlink:href="#ArialMT-62"/>
       <use x="233.544921875" xlink:href="#ArialMT-61"/>
       <use x="289.16015625" xlink:href="#ArialMT-6e"/>
       <use x="344.775390625" xlink:href="#ArialMT-74"/>
       <use x="372.55859375" xlink:href="#ArialMT-69"/>
       <use x="394.775390625" xlink:href="#ArialMT-66"/>
       <use x="422.55859375" xlink:href="#ArialMT-6f"/>
       <use x="478.173828125" xlink:href="#ArialMT-72"/>
       <use x="511.474609375" xlink:href="#ArialMT-6d"/>
       <use x="594.775390625" xlink:href="#ArialMT-65"/>
       <use x="650.390625" xlink:href="#ArialMT-73"/>
      </g>
     </g>
    </g>
    <g id="ytick_14">
     <g id="line2d_42"/>
     <g id="line2d_43"/>
     <g id="text_20">
      <!-- Pleuronectiformes -->
      <defs>
       <path d="M 7.71875 0 
L 7.71875 71.578125 
L 34.71875 71.578125 
Q 41.84375 71.578125 45.609375 70.90625 
Q 50.875 70.015625 54.4375 67.546875 
Q 58.015625 65.09375 60.1875 60.640625 
Q 62.359375 56.203125 62.359375 50.875 
Q 62.359375 41.75 56.546875 35.421875 
Q 50.734375 29.109375 35.546875 29.109375 
L 17.1875 29.109375 
L 17.1875 0 
z
M 17.1875 37.546875 
L 35.6875 37.546875 
Q 44.875 37.546875 48.734375 40.96875 
Q 52.59375 44.390625 52.59375 50.59375 
Q 52.59375 55.078125 50.3125 58.265625 
Q 48.046875 61.46875 44.34375 62.5 
Q 41.9375 63.140625 35.5 63.140625 
L 17.1875 63.140625 
z
" id="ArialMT-50"/>
      </defs>
      <g style="fill:#262626;" transform="translate(103.5332 515.148213068)scale(0.192 -0.192)">
       <use xlink:href="#ArialMT-50"/>
       <use x="66.69921875" xlink:href="#ArialMT-6c"/>
       <use x="88.916015625" xlink:href="#ArialMT-65"/>
       <use x="144.53125" xlink:href="#ArialMT-75"/>
       <use x="200.146484375" xlink:href="#ArialMT-72"/>
       <use x="233.447265625" xlink:href="#ArialMT-6f"/>
       <use x="289.0625" xlink:href="#ArialMT-6e"/>
       <use x="344.677734375" xlink:href="#ArialMT-65"/>
       <use x="400.29296875" xlink:href="#ArialMT-63"/>
       <use x="450.29296875" xlink:href="#ArialMT-74"/>
       <use x="478.076171875" xlink:href="#ArialMT-69"/>
       <use x="500.29296875" xlink:href="#ArialMT-66"/>
       <use x="528.076171875" xlink:href="#ArialMT-6f"/>
       <use x="583.69140625" xlink:href="#ArialMT-72"/>
       <use x="616.9921875" xlink:href="#ArialMT-6d"/>
       <use x="700.29296875" xlink:href="#ArialMT-65"/>
       <use x="755.908203125" xlink:href="#ArialMT-73"/>
      </g>
     </g>
    </g>
    <g id="ytick_15">
     <g id="line2d_44"/>
     <g id="line2d_45"/>
     <g id="text_21">
      <!-- Syngnathiformes -->
      <g style="fill:#262626;" transform="translate(114.1922 551.100973295)scale(0.192 -0.192)">
       <use xlink:href="#ArialMT-53"/>
       <use x="66.69921875" xlink:href="#ArialMT-79"/>
       <use x="116.69921875" xlink:href="#ArialMT-6e"/>
       <use x="172.314453125" xlink:href="#ArialMT-67"/>
       <use x="227.9296875" xlink:href="#ArialMT-6e"/>
       <use x="283.544921875" xlink:href="#ArialMT-61"/>
       <use x="339.16015625" xlink:href="#ArialMT-74"/>
       <use x="366.943359375" xlink:href="#ArialMT-68"/>
       <use x="422.55859375" xlink:href="#ArialMT-69"/>
       <use x="444.775390625" xlink:href="#ArialMT-66"/>
       <use x="472.55859375" xlink:href="#ArialMT-6f"/>
       <use x="528.173828125" xlink:href="#ArialMT-72"/>
       <use x="561.474609375" xlink:href="#ArialMT-6d"/>
       <use x="644.775390625" xlink:href="#ArialMT-65"/>
       <use x="700.390625" xlink:href="#ArialMT-73"/>
      </g>
     </g>
    </g>
    <g id="ytick_16">
     <g id="line2d_46"/>
     <g id="line2d_47"/>
     <g id="text_22">
      <!-- Callionymiformes -->
      <g style="fill:#262626;" transform="translate(111.0302 587.049233523)scale(0.192 -0.192)">
       <use xlink:href="#ArialMT-43"/>
       <use x="72.216796875" xlink:href="#ArialMT-61"/>
       <use x="127.83203125" xlink:href="#ArialMT-6c"/>
       <use x="150.048828125" xlink:href="#ArialMT-6c"/>
       <use x="172.265625" xlink:href="#ArialMT-69"/>
       <use x="194.482421875" xlink:href="#ArialMT-6f"/>
       <use x="250.09765625" xlink:href="#ArialMT-6e"/>
       <use x="305.712890625" xlink:href="#ArialMT-79"/>
       <use x="355.712890625" xlink:href="#ArialMT-6d"/>
       <use x="439.013671875" xlink:href="#ArialMT-69"/>
       <use x="461.23046875" xlink:href="#ArialMT-66"/>
       <use x="489.013671875" xlink:href="#ArialMT-6f"/>
       <use x="544.62890625" xlink:href="#ArialMT-72"/>
       <use x="577.9296875" xlink:href="#ArialMT-6d"/>
       <use x="661.23046875" xlink:href="#ArialMT-65"/>
       <use x="716.845703125" xlink:href="#ArialMT-73"/>
      </g>
     </g>
    </g>
    <g id="ytick_17">
     <g id="line2d_48"/>
     <g id="line2d_49"/>
     <g id="text_23">
      <!-- Labriformes  -->
      <defs>
       <path d="M 7.328125 0 
L 7.328125 71.578125 
L 16.796875 71.578125 
L 16.796875 8.453125 
L 52.046875 8.453125 
L 52.046875 0 
z
" id="ArialMT-4c"/>
      </defs>
      <g style="fill:#262626;" transform="translate(151.5602 622.99299375)scale(0.192 -0.192)">
       <use xlink:href="#ArialMT-4c"/>
       <use x="55.615234375" xlink:href="#ArialMT-61"/>
       <use x="111.23046875" xlink:href="#ArialMT-62"/>
       <use x="166.845703125" xlink:href="#ArialMT-72"/>
       <use x="200.146484375" xlink:href="#ArialMT-69"/>
       <use x="222.36328125" xlink:href="#ArialMT-66"/>
       <use x="250.146484375" xlink:href="#ArialMT-6f"/>
       <use x="305.76171875" xlink:href="#ArialMT-72"/>
       <use x="339.0625" xlink:href="#ArialMT-6d"/>
       <use x="422.36328125" xlink:href="#ArialMT-65"/>
       <use x="477.978515625" xlink:href="#ArialMT-73"/>
       <use x="527.978515625" xlink:href="#ArialMT-20"/>
      </g>
     </g>
    </g>
    <g id="ytick_18">
     <g id="line2d_50"/>
     <g id="line2d_51"/>
     <g id="text_24">
      <!-- Perciformes -->
      <g style="fill:#262626;" transform="translate(155.8412 658.941253977)scale(0.192 -0.192)">
       <use xlink:href="#ArialMT-50"/>
       <use x="66.69921875" xlink:href="#ArialMT-65"/>
       <use x="122.314453125" xlink:href="#ArialMT-72"/>
       <use x="155.615234375" xlink:href="#ArialMT-63"/>
       <use x="205.615234375" xlink:href="#ArialMT-69"/>
       <use x="227.83203125" xlink:href="#ArialMT-66"/>
       <use x="255.615234375" xlink:href="#ArialMT-6f"/>
       <use x="311.23046875" xlink:href="#ArialMT-72"/>
       <use x="344.53125" xlink:href="#ArialMT-6d"/>
       <use x="427.83203125" xlink:href="#ArialMT-65"/>
       <use x="483.447265625" xlink:href="#ArialMT-73"/>
      </g>
     </g>
    </g>
    <g id="ytick_19">
     <g id="line2d_52"/>
     <g id="line2d_53"/>
     <g id="text_25">
      <!-- Scorpaeniformes -->
      <g style="fill:#262626;" transform="translate(113.1332 695.006514205)scale(0.192 -0.192)">
       <use xlink:href="#ArialMT-53"/>
       <use x="66.69921875" xlink:href="#ArialMT-63"/>
       <use x="116.69921875" xlink:href="#ArialMT-6f"/>
       <use x="172.314453125" xlink:href="#ArialMT-72"/>
       <use x="205.615234375" xlink:href="#ArialMT-70"/>
       <use x="261.23046875" xlink:href="#ArialMT-61"/>
       <use x="316.845703125" xlink:href="#ArialMT-65"/>
       <use x="372.4609375" xlink:href="#ArialMT-6e"/>
       <use x="428.076171875" xlink:href="#ArialMT-69"/>
       <use x="450.29296875" xlink:href="#ArialMT-66"/>
       <use x="478.076171875" xlink:href="#ArialMT-6f"/>
       <use x="533.69140625" xlink:href="#ArialMT-72"/>
       <use x="566.9921875" xlink:href="#ArialMT-6d"/>
       <use x="650.29296875" xlink:href="#ArialMT-65"/>
       <use x="705.908203125" xlink:href="#ArialMT-73"/>
      </g>
     </g>
    </g>
    <g id="ytick_20">
     <g id="line2d_54"/>
     <g id="line2d_55"/>
     <g id="text_26">
      <!-- Acanthuriformes -->
      <g style="fill:#262626;" transform="translate(118.4762 730.837774432)scale(0.192 -0.192)">
       <use xlink:href="#ArialMT-41"/>
       <use x="66.69921875" xlink:href="#ArialMT-63"/>
       <use x="116.69921875" xlink:href="#ArialMT-61"/>
       <use x="172.314453125" xlink:href="#ArialMT-6e"/>
       <use x="227.9296875" xlink:href="#ArialMT-74"/>
       <use x="255.712890625" xlink:href="#ArialMT-68"/>
       <use x="311.328125" xlink:href="#ArialMT-75"/>
       <use x="366.943359375" xlink:href="#ArialMT-72"/>
       <use x="400.244140625" xlink:href="#ArialMT-69"/>
       <use x="422.4609375" xlink:href="#ArialMT-66"/>
       <use x="450.244140625" xlink:href="#ArialMT-6f"/>
       <use x="505.859375" xlink:href="#ArialMT-72"/>
       <use x="539.16015625" xlink:href="#ArialMT-6d"/>
       <use x="622.4609375" xlink:href="#ArialMT-65"/>
       <use x="678.076171875" xlink:href="#ArialMT-73"/>
      </g>
     </g>
    </g>
    <g id="ytick_21">
     <g id="line2d_56"/>
     <g id="line2d_57"/>
     <g id="text_27">
      <!-- Lophiiformes -->
      <g style="fill:#262626;" transform="translate(148.3442 766.903034659)scale(0.192 -0.192)">
       <use xlink:href="#ArialMT-4c"/>
       <use x="55.615234375" xlink:href="#ArialMT-6f"/>
       <use x="111.23046875" xlink:href="#ArialMT-70"/>
       <use x="166.845703125" xlink:href="#ArialMT-68"/>
       <use x="222.4609375" xlink:href="#ArialMT-69"/>
       <use x="244.677734375" xlink:href="#ArialMT-69"/>
       <use x="266.89453125" xlink:href="#ArialMT-66"/>
       <use x="294.677734375" xlink:href="#ArialMT-6f"/>
       <use x="350.29296875" xlink:href="#ArialMT-72"/>
       <use x="383.59375" xlink:href="#ArialMT-6d"/>
       <use x="466.89453125" xlink:href="#ArialMT-65"/>
       <use x="522.509765625" xlink:href="#ArialMT-73"/>
      </g>
     </g>
    </g>
    <g id="ytick_22">
     <g id="line2d_58"/>
     <g id="line2d_59"/>
     <g id="text_28">
      <!-- Tetraodontiformes  -->
      <defs>
       <path d="M 25.921875 0 
L 25.921875 63.140625 
L 2.34375 63.140625 
L 2.34375 71.578125 
L 59.078125 71.578125 
L 59.078125 63.140625 
L 35.40625 63.140625 
L 35.40625 0 
z
" id="ArialMT-54"/>
      </defs>
      <g style="fill:#262626;" transform="translate(97.1672 802.734294886)scale(0.192 -0.192)">
       <use xlink:href="#ArialMT-54"/>
       <use x="60.912109375" xlink:href="#ArialMT-65"/>
       <use x="116.52734375" xlink:href="#ArialMT-74"/>
       <use x="144.310546875" xlink:href="#ArialMT-72"/>
       <use x="177.611328125" xlink:href="#ArialMT-61"/>
       <use x="233.2265625" xlink:href="#ArialMT-6f"/>
       <use x="288.841796875" xlink:href="#ArialMT-64"/>
       <use x="344.45703125" xlink:href="#ArialMT-6f"/>
       <use x="400.072265625" xlink:href="#ArialMT-6e"/>
       <use x="455.6875" xlink:href="#ArialMT-74"/>
       <use x="483.470703125" xlink:href="#ArialMT-69"/>
       <use x="505.6875" xlink:href="#ArialMT-66"/>
       <use x="533.470703125" xlink:href="#ArialMT-6f"/>
       <use x="589.0859375" xlink:href="#ArialMT-72"/>
       <use x="622.38671875" xlink:href="#ArialMT-6d"/>
       <use x="705.6875" xlink:href="#ArialMT-65"/>
       <use x="761.302734375" xlink:href="#ArialMT-73"/>
       <use x="811.302734375" xlink:href="#ArialMT-20"/>
      </g>
     </g>
    </g>
    <g id="text_29">
     <!-- Family -->
     <g style="fill:#262626;" transform="translate(53.37845 479.1984375)rotate(-90.0)scale(0.4 -0.4)">
      <use xlink:href="#ArialMT-46"/>
      <use x="61.083984375" xlink:href="#ArialMT-61"/>
      <use x="116.69921875" xlink:href="#ArialMT-6d"/>
      <use x="200.0" xlink:href="#ArialMT-69"/>
      <use x="222.216796875" xlink:href="#ArialMT-6c"/>
      <use x="244.43359375" xlink:href="#ArialMT-79"/>
     </g>
    </g>
   </g>
   <g id="patch_3">
    <path d="M 269.4582 815.744925 
L 269.4582 24.8832 
" style="fill:none;"/>
   </g>
   <g id="patch_4">
    <path d="M 695.1168 815.744925 
L 695.1168 24.8832 
" style="fill:none;"/>
   </g>
   <g id="patch_5">
    <path d="M 269.4582 24.8832 
L 695.1168 24.8832 
" style="fill:none;"/>
   </g>
   <g id="patch_6">
    <path d="M 269.4582 815.744925 
L 695.1168 815.744925 
" style="fill:none;"/>
   </g>
   <g id="PathCollection_1">
    <defs>
     <path d="M 0 5 
C 1.326016 5 2.597899 4.473168 3.535534 3.535534 
C 4.473168 2.597899 5 1.326016 5 0 
C 5 -1.326016 4.473168 -2.597899 3.535534 -3.535534 
C 2.597899 -4.473168 1.326016 -5 0 -5 
C -1.326016 -5 -2.597899 -4.473168 -3.535534 -3.535534 
C -4.473168 -2.597899 -5 -1.326016 -5 0 
C -5 1.326016 -4.473168 2.597899 -3.535534 3.535534 
C -2.597899 4.473168 -1.326016 5 0 5 
z
" id="m0b964f015a" style="stroke:#000000;stroke-width:0.5;"/>
    </defs>
    <g clip-path="url(#p43ff2f1a33)">
     <use style="fill:#f8889a;stroke:#000000;stroke-width:0.5;" x="432.278727922" xlink:href="#m0b964f015a" y="46.4279774144"/>
    </g>
   </g>
   <g id="PathCollection_2">
    <defs>
     <path d="M 0 5 
C 1.326016 5 2.597899 4.473168 3.535534 3.535534 
C 4.473168 2.597899 5 1.326016 5 0 
C 5 -1.326016 4.473168 -2.597899 3.535534 -3.535534 
C 2.597899 -4.473168 1.326016 -5 0 -5 
C -1.326016 -5 -2.597899 -4.473168 -3.535534 -3.535534 
C -4.473168 -2.597899 -5 -1.326016 -5 0 
C -5 1.326016 -4.473168 2.597899 -3.535534 3.535534 
C -2.597899 4.473168 -1.326016 5 0 5 
z
" id="m1cd9e03477" style="stroke:#000000;stroke-width:0.5;"/>
    </defs>
    <g clip-path="url(#p43ff2f1a33)">
     <use style="fill:#f88b77;stroke:#000000;stroke-width:0.5;" x="457.492152785" xlink:href="#m1cd9e03477" y="77.848685808"/>
    </g>
   </g>
   <g id="PathCollection_3">
    <defs>
     <path d="M 0 5 
C 1.326016 5 2.597899 4.473168 3.535534 3.535534 
C 4.473168 2.597899 5 1.326016 5 0 
C 5 -1.326016 4.473168 -2.597899 3.535534 -3.535534 
C 2.597899 -4.473168 1.326016 -5 0 -5 
C -1.326016 -5 -2.597899 -4.473168 -3.535534 -3.535534 
C -4.473168 -2.597899 -5 -1.326016 -5 0 
C -5 1.326016 -4.473168 2.597899 -3.535534 3.535534 
C -2.597899 4.473168 -1.326016 5 0 5 
z
" id="C0_0_dd38d81976"/>
    </defs>
    <g clip-path="url(#p43ff2f1a33)">
     <use style="fill:#f49137;stroke:#000000;stroke-width:0.5;" x="467.33409173" xlink:href="#C0_0_dd38d81976" y="116.295132929"/>
    </g>
    <g clip-path="url(#p43ff2f1a33)">
     <use style="fill:#f49137;stroke:#000000;stroke-width:0.5;" x="460.138015878" xlink:href="#C0_0_dd38d81976" y="117.381423169"/>
    </g>
    <g clip-path="url(#p43ff2f1a33)">
     <use style="fill:#f49137;stroke:#000000;stroke-width:0.5;" x="453.578742979" xlink:href="#C0_0_dd38d81976" y="116.02008539"/>
    </g>
    <g clip-path="url(#p43ff2f1a33)">
     <use style="fill:#f49137;stroke:#000000;stroke-width:0.5;" x="449.042487918" xlink:href="#C0_0_dd38d81976" y="115.073789213"/>
    </g>
    <g clip-path="url(#p43ff2f1a33)">
     <use style="fill:#f49137;stroke:#000000;stroke-width:0.5;" x="422.698444814" xlink:href="#C0_0_dd38d81976" y="111.563345443"/>
    </g>
    <g clip-path="url(#p43ff2f1a33)">
     <use style="fill:#f49137;stroke:#000000;stroke-width:0.5;" x="462.551535441" xlink:href="#C0_0_dd38d81976" y="112.571260282"/>
    </g>
    <g clip-path="url(#p43ff2f1a33)">
     <use style="fill:#f49137;stroke:#000000;stroke-width:0.5;" x="447.637887248" xlink:href="#C0_0_dd38d81976" y="115.297922104"/>
    </g>
    <g clip-path="url(#p43ff2f1a33)">
     <use style="fill:#f49137;stroke:#000000;stroke-width:0.5;" x="458.504286613" xlink:href="#C0_0_dd38d81976" y="117.78886624"/>
    </g>
    <g clip-path="url(#p43ff2f1a33)">
     <use style="fill:#f49137;stroke:#000000;stroke-width:0.5;" x="456.953768438" xlink:href="#C0_0_dd38d81976" y="114.725278299"/>
    </g>
    <g clip-path="url(#p43ff2f1a33)">
     <use style="fill:#f49137;stroke:#000000;stroke-width:0.5;" x="462.316509644" xlink:href="#C0_0_dd38d81976" y="116.324180987"/>
    </g>
    <g clip-path="url(#p43ff2f1a33)">
     <use style="fill:#f49137;stroke:#000000;stroke-width:0.5;" x="429.504775913" xlink:href="#C0_0_dd38d81976" y="113.208886586"/>
    </g>
    <g clip-path="url(#p43ff2f1a33)">
     <use style="fill:#f49137;stroke:#000000;stroke-width:0.5;" x="464.021977283" xlink:href="#C0_0_dd38d81976" y="118.083580327"/>
    </g>
    <g clip-path="url(#p43ff2f1a33)">
     <use style="fill:#f49137;stroke:#000000;stroke-width:0.5;" x="463.973469332" xlink:href="#C0_0_dd38d81976" y="114.189732715"/>
    </g>
    <g clip-path="url(#p43ff2f1a33)">
     <use style="fill:#f49137;stroke:#000000;stroke-width:0.5;" x="465.71719371" xlink:href="#C0_0_dd38d81976" y="116.201746478"/>
    </g>
    <g clip-path="url(#p43ff2f1a33)">
     <use style="fill:#f49137;stroke:#000000;stroke-width:0.5;" x="450.93115829" xlink:href="#C0_0_dd38d81976" y="116.296268453"/>
    </g>
    <g clip-path="url(#p43ff2f1a33)">
     <use style="fill:#f49137;stroke:#000000;stroke-width:0.5;" x="452.943305771" xlink:href="#C0_0_dd38d81976" y="112.131298855"/>
    </g>
    <g clip-path="url(#p43ff2f1a33)">
     <use style="fill:#f49137;stroke:#000000;stroke-width:0.5;" x="454.986559319" xlink:href="#C0_0_dd38d81976" y="116.863634171"/>
    </g>
    <g clip-path="url(#p43ff2f1a33)">
     <use style="fill:#f49137;stroke:#000000;stroke-width:0.5;" x="454.319120039" xlink:href="#C0_0_dd38d81976" y="111.534604678"/>
    </g>
    <g clip-path="url(#p43ff2f1a33)">
     <use style="fill:#f49137;stroke:#000000;stroke-width:0.5;" x="458.973941041" xlink:href="#C0_0_dd38d81976" y="116.248259708"/>
    </g>
    <g clip-path="url(#p43ff2f1a33)">
     <use style="fill:#f49137;stroke:#000000;stroke-width:0.5;" x="460.376753447" xlink:href="#C0_0_dd38d81976" y="114.015442817"/>
    </g>
    <g clip-path="url(#p43ff2f1a33)">
     <use style="fill:#f49137;stroke:#000000;stroke-width:0.5;" x="458.048165892" xlink:href="#C0_0_dd38d81976" y="115.703425737"/>
    </g>
    <g clip-path="url(#p43ff2f1a33)">
     <use style="fill:#f49137;stroke:#000000;stroke-width:0.5;" x="466.558307256" xlink:href="#C0_0_dd38d81976" y="113.827085787"/>
    </g>
    <g clip-path="url(#p43ff2f1a33)">
     <use style="fill:#f49137;stroke:#000000;stroke-width:0.5;" x="457.415069211" xlink:href="#C0_0_dd38d81976" y="113.637391295"/>
    </g>
    <g clip-path="url(#p43ff2f1a33)">
     <use style="fill:#f49137;stroke:#000000;stroke-width:0.5;" x="474.08404646" xlink:href="#C0_0_dd38d81976" y="112.462871477"/>
    </g>
    <g clip-path="url(#p43ff2f1a33)">
     <use style="fill:#f49137;stroke:#000000;stroke-width:0.5;" x="464.000630512" xlink:href="#C0_0_dd38d81976" y="111.436718951"/>
    </g>
    <g clip-path="url(#p43ff2f1a33)">
     <use style="fill:#f49137;stroke:#000000;stroke-width:0.5;" x="461.371838893" xlink:href="#C0_0_dd38d81976" y="114.813421213"/>
    </g>
    <g clip-path="url(#p43ff2f1a33)">
     <use style="fill:#f49137;stroke:#000000;stroke-width:0.5;" x="494.475497576" xlink:href="#C0_0_dd38d81976" y="116.509509207"/>
    </g>
   </g>
   <g id="PathCollection_4">
    <defs>
     <path d="M 0 5 
C 1.326016 5 2.597899 4.473168 3.535534 3.535534 
C 4.473168 2.597899 5 1.326016 5 0 
C 5 -1.326016 4.473168 -2.597899 3.535534 -3.535534 
C 2.597899 -4.473168 1.326016 -5 0 -5 
C -1.326016 -5 -2.597899 -4.473168 -3.535534 -3.535534 
C -4.473168 -2.597899 -5 -1.326016 -5 0 
C -5 1.326016 -4.473168 2.597899 -3.535534 3.535534 
C -2.597899 4.473168 -1.326016 5 0 5 
z
" id="C1_0_3325e188a6"/>
    </defs>
    <g clip-path="url(#p43ff2f1a33)">
     <use style="fill:#d99f37;stroke:#000000;stroke-width:0.5;" x="470.308783069" xlink:href="#C1_0_3325e188a6" y="149.342850118"/>
    </g>
    <g clip-path="url(#p43ff2f1a33)">
     <use style="fill:#d99f37;stroke:#000000;stroke-width:0.5;" x="462.695792131" xlink:href="#C1_0_3325e188a6" y="150.352016134"/>
    </g>
    <g clip-path="url(#p43ff2f1a33)">
     <use style="fill:#d99f37;stroke:#000000;stroke-width:0.5;" x="463.326795775" xlink:href="#C1_0_3325e188a6" y="148.027841647"/>
    </g>
    <g clip-path="url(#p43ff2f1a33)">
     <use style="fill:#d99f37;stroke:#000000;stroke-width:0.5;" x="466.699310842" xlink:href="#C1_0_3325e188a6" y="148.428986829"/>
    </g>
    <g clip-path="url(#p43ff2f1a33)">
     <use style="fill:#d99f37;stroke:#000000;stroke-width:0.5;" x="464.838450925" xlink:href="#C1_0_3325e188a6" y="152.026752998"/>
    </g>
    <g clip-path="url(#p43ff2f1a33)">
     <use style="fill:#d99f37;stroke:#000000;stroke-width:0.5;" x="464.706981924" xlink:href="#C1_0_3325e188a6" y="149.48421543"/>
    </g>
    <g clip-path="url(#p43ff2f1a33)">
     <use style="fill:#d99f37;stroke:#000000;stroke-width:0.5;" x="469.018096302" xlink:href="#C1_0_3325e188a6" y="147.66209711"/>
    </g>
    <g clip-path="url(#p43ff2f1a33)">
     <use style="fill:#d99f37;stroke:#000000;stroke-width:0.5;" x="455.939216159" xlink:href="#C1_0_3325e188a6" y="153.39045462"/>
    </g>
   </g>
   <g id="PathCollection_5">
    <defs>
     <path d="M 0 5 
C 1.326016 5 2.597899 4.473168 3.535534 3.535534 
C 4.473168 2.597899 5 1.326016 5 0 
C 5 -1.326016 4.473168 -2.597899 3.535534 -3.535534 
C 2.597899 -4.473168 1.326016 -5 0 -5 
C -1.326016 -5 -2.597899 -4.473168 -3.535534 -3.535534 
C -4.473168 -2.597899 -5 -1.326016 -5 0 
C -5 1.326016 -4.473168 2.597899 -3.535534 3.535534 
C -2.597899 4.473168 -1.326016 5 0 5 
z
" id="madcb2e96ed" style="stroke:#000000;stroke-width:0.5;"/>
    </defs>
    <g clip-path="url(#p43ff2f1a33)">
     <use style="fill:#c4a736;stroke:#000000;stroke-width:0.5;" x="465.638488586" xlink:href="#madcb2e96ed" y="186.255947172"/>
    </g>
   </g>
   <g id="PathCollection_6">
    <defs>
     <path d="M 0 5 
C 1.326016 5 2.597899 4.473168 3.535534 3.535534 
C 4.473168 2.597899 5 1.326016 5 0 
C 5 -1.326016 4.473168 -2.597899 3.535534 -3.535534 
C 2.597899 -4.473168 1.326016 -5 0 -5 
C -1.326016 -5 -2.597899 -4.473168 -3.535534 -3.535534 
C -4.473168 -2.597899 -5 -1.326016 -5 0 
C -5 1.326016 -4.473168 2.597899 -3.535534 3.535534 
C -2.597899 4.473168 -1.326016 5 0 5 
z
" id="C2_0_8c553f5927"/>
    </defs>
    <g clip-path="url(#p43ff2f1a33)">
     <use style="fill:#afae36;stroke:#000000;stroke-width:0.5;" x="476.812066372" xlink:href="#C2_0_8c553f5927" y="225.92102561"/>
    </g>
    <g clip-path="url(#p43ff2f1a33)">
     <use style="fill:#afae36;stroke:#000000;stroke-width:0.5;" x="476.236720991" xlink:href="#C2_0_8c553f5927" y="225.445703929"/>
    </g>
    <g clip-path="url(#p43ff2f1a33)">
     <use style="fill:#afae36;stroke:#000000;stroke-width:0.5;" x="466.54350098" xlink:href="#C2_0_8c553f5927" y="223.443338615"/>
    </g>
    <g clip-path="url(#p43ff2f1a33)">
     <use style="fill:#afae36;stroke:#000000;stroke-width:0.5;" x="473.870354488" xlink:href="#C2_0_8c553f5927" y="223.58761041"/>
    </g>
    <g clip-path="url(#p43ff2f1a33)">
     <use style="fill:#afae36;stroke:#000000;stroke-width:0.5;" x="459.5869842" xlink:href="#C2_0_8c553f5927" y="222.532032716"/>
    </g>
    <g clip-path="url(#p43ff2f1a33)">
     <use style="fill:#afae36;stroke:#000000;stroke-width:0.5;" x="466.450902783" xlink:href="#C2_0_8c553f5927" y="222.416704854"/>
    </g>
    <g clip-path="url(#p43ff2f1a33)">
     <use style="fill:#afae36;stroke:#000000;stroke-width:0.5;" x="462.13580537" xlink:href="#C2_0_8c553f5927" y="225.312450751"/>
    </g>
    <g clip-path="url(#p43ff2f1a33)">
     <use style="fill:#afae36;stroke:#000000;stroke-width:0.5;" x="445.25134331" xlink:href="#C2_0_8c553f5927" y="225.402061646"/>
    </g>
   </g>
   <g id="PathCollection_7">
    <defs>
     <path d="M 0 5 
C 1.326016 5 2.597899 4.473168 3.535534 3.535534 
C 4.473168 2.597899 5 1.326016 5 0 
C 5 -1.326016 4.473168 -2.597899 3.535534 -3.535534 
C 2.597899 -4.473168 1.326016 -5 0 -5 
C -1.326016 -5 -2.597899 -4.473168 -3.535534 -3.535534 
C -4.473168 -2.597899 -5 -1.326016 -5 0 
C -5 1.326016 -4.473168 2.597899 -3.535534 3.535534 
C -2.597899 4.473168 -1.326016 5 0 5 
z
" id="C3_0_9248c3d57f"/>
    </defs>
    <g clip-path="url(#p43ff2f1a33)">
     <use style="fill:#96b536;stroke:#000000;stroke-width:0.5;" x="449.482102075" xlink:href="#C3_0_9248c3d57f" y="257.52792565"/>
    </g>
    <g clip-path="url(#p43ff2f1a33)">
     <use style="fill:#96b536;stroke:#000000;stroke-width:0.5;" x="462.922739094" xlink:href="#C3_0_9248c3d57f" y="257.411564527"/>
    </g>
    <g clip-path="url(#p43ff2f1a33)">
     <use style="fill:#96b536;stroke:#000000;stroke-width:0.5;" x="460.232808893" xlink:href="#C3_0_9248c3d57f" y="255.363093508"/>
    </g>
    <g clip-path="url(#p43ff2f1a33)">
     <use style="fill:#96b536;stroke:#000000;stroke-width:0.5;" x="466.391079785" xlink:href="#C3_0_9248c3d57f" y="260.014186767"/>
    </g>
    <g clip-path="url(#p43ff2f1a33)">
     <use style="fill:#96b536;stroke:#000000;stroke-width:0.5;" x="451.231823426" xlink:href="#C3_0_9248c3d57f" y="261.67101439"/>
    </g>
    <g clip-path="url(#p43ff2f1a33)">
     <use style="fill:#96b536;stroke:#000000;stroke-width:0.5;" x="465.720479042" xlink:href="#C3_0_9248c3d57f" y="260.728892941"/>
    </g>
    <g clip-path="url(#p43ff2f1a33)">
     <use style="fill:#96b536;stroke:#000000;stroke-width:0.5;" x="457.89868603" xlink:href="#C3_0_9248c3d57f" y="256.927480049"/>
    </g>
    <g clip-path="url(#p43ff2f1a33)">
     <use style="fill:#96b536;stroke:#000000;stroke-width:0.5;" x="465.555093081" xlink:href="#C3_0_9248c3d57f" y="261.07057334"/>
    </g>
    <g clip-path="url(#p43ff2f1a33)">
     <use style="fill:#96b536;stroke:#000000;stroke-width:0.5;" x="463.127197593" xlink:href="#C3_0_9248c3d57f" y="258.765275803"/>
    </g>
   </g>
   <g id="PathCollection_8">
    <defs>
     <path d="M 0 5 
C 1.326016 5 2.597899 4.473168 3.535534 3.535534 
C 4.473168 2.597899 5 1.326016 5 0 
C 5 -1.326016 4.473168 -2.597899 3.535534 -3.535534 
C 2.597899 -4.473168 1.326016 -5 0 -5 
C -1.326016 -5 -2.597899 -4.473168 -3.535534 -3.535534 
C -4.473168 -2.597899 -5 -1.326016 -5 0 
C -5 1.326016 -4.473168 2.597899 -3.535534 3.535534 
C -2.597899 4.473168 -1.326016 5 0 5 
z
" id="m82bfc42076" style="stroke:#000000;stroke-width:0.5;"/>
    </defs>
    <g clip-path="url(#p43ff2f1a33)">
     <use style="fill:#6ebc36;stroke:#000000;stroke-width:0.5;" x="462.348590826" xlink:href="#m82bfc42076" y="293.394803883"/>
    </g>
   </g>
   <g id="PathCollection_9">
    <defs>
     <path d="M 0 5 
C 1.326016 5 2.597899 4.473168 3.535534 3.535534 
C 4.473168 2.597899 5 1.326016 5 0 
C 5 -1.326016 4.473168 -2.597899 3.535534 -3.535534 
C 2.597899 -4.473168 1.326016 -5 0 -5 
C -1.326016 -5 -2.597899 -4.473168 -3.535534 -3.535534 
C -4.473168 -2.597899 -5 -1.326016 -5 0 
C -5 1.326016 -4.473168 2.597899 -3.535534 3.535534 
C -2.597899 4.473168 -1.326016 5 0 5 
z
" id="m7a0df1e3de" style="stroke:#000000;stroke-width:0.5;"/>
    </defs>
    <g clip-path="url(#p43ff2f1a33)">
     <use style="fill:#37c160;stroke:#000000;stroke-width:0.5;" x="460.969626953" xlink:href="#m7a0df1e3de" y="329.38282285"/>
    </g>
   </g>
   <g id="PathCollection_10">
    <defs>
     <path d="M 0 5 
C 1.326016 5 2.597899 4.473168 3.535534 3.535534 
C 4.473168 2.597899 5 1.326016 5 0 
C 5 -1.326016 4.473168 -2.597899 3.535534 -3.535534 
C 2.597899 -4.473168 1.326016 -5 0 -5 
C -1.326016 -5 -2.597899 -4.473168 -3.535534 -3.535534 
C -4.473168 -2.597899 -5 -1.326016 -5 0 
C -5 1.326016 -4.473168 2.597899 -3.535534 3.535534 
C -2.597899 4.473168 -1.326016 5 0 5 
z
" id="C4_0_af01eab865"/>
    </defs>
    <g clip-path="url(#p43ff2f1a33)">
     <use style="fill:#39be8b;stroke:#000000;stroke-width:0.5;" x="462.284488622" xlink:href="#C4_0_af01eab865" y="363.954984067"/>
    </g>
    <g clip-path="url(#p43ff2f1a33)">
     <use style="fill:#39be8b;stroke:#000000;stroke-width:0.5;" x="463.94372658" xlink:href="#C4_0_af01eab865" y="364.557461083"/>
    </g>
    <g clip-path="url(#p43ff2f1a33)">
     <use style="fill:#39be8b;stroke:#000000;stroke-width:0.5;" x="454.894855984" xlink:href="#C4_0_af01eab865" y="365.390554436"/>
    </g>
    <g clip-path="url(#p43ff2f1a33)">
     <use style="fill:#39be8b;stroke:#000000;stroke-width:0.5;" x="462.355449133" xlink:href="#C4_0_af01eab865" y="369.262201764"/>
    </g>
   </g>
   <g id="PathCollection_11">
    <defs>
     <path d="M 0 5 
C 1.326016 5 2.597899 4.473168 3.535534 3.535534 
C 4.473168 2.597899 5 1.326016 5 0 
C 5 -1.326016 4.473168 -2.597899 3.535534 -3.535534 
C 2.597899 -4.473168 1.326016 -5 0 -5 
C -1.326016 -5 -2.597899 -4.473168 -3.535534 -3.535534 
C -4.473168 -2.597899 -5 -1.326016 -5 0 
C -5 1.326016 -4.473168 2.597899 -3.535534 3.535534 
C -2.597899 4.473168 -1.326016 5 0 5 
z
" id="m12e030dc1e" style="stroke:#000000;stroke-width:0.5;"/>
    </defs>
    <g clip-path="url(#p43ff2f1a33)">
     <use style="fill:#3abda1;stroke:#000000;stroke-width:0.5;" x="460.897903602" xlink:href="#m12e030dc1e" y="403.498915812"/>
    </g>
   </g>
   <g id="PathCollection_12">
    <defs>
     <path d="M 0 5 
C 1.326016 5 2.597899 4.473168 3.535534 3.535534 
C 4.473168 2.597899 5 1.326016 5 0 
C 5 -1.326016 4.473168 -2.597899 3.535534 -3.535534 
C 2.597899 -4.473168 1.326016 -5 0 -5 
C -1.326016 -5 -2.597899 -4.473168 -3.535534 -3.535534 
C -4.473168 -2.597899 -5 -1.326016 -5 0 
C -5 1.326016 -4.473168 2.597899 -3.535534 3.535534 
C -2.597899 4.473168 -1.326016 5 0 5 
z
" id="mfe4b6c4f79" style="stroke:#000000;stroke-width:0.5;"/>
    </defs>
    <g clip-path="url(#p43ff2f1a33)">
     <use style="fill:#3bbbb2;stroke:#000000;stroke-width:0.5;" x="474.440126378" xlink:href="#mfe4b6c4f79" y="440.306831577"/>
    </g>
   </g>
   <g id="PathCollection_13">
    <defs>
     <path d="M 0 5 
C 1.326016 5 2.597899 4.473168 3.535534 3.535534 
C 4.473168 2.597899 5 1.326016 5 0 
C 5 -1.326016 4.473168 -2.597899 3.535534 -3.535534 
C 2.597899 -4.473168 1.326016 -5 0 -5 
C -1.326016 -5 -2.597899 -4.473168 -3.535534 -3.535534 
C -4.473168 -2.597899 -5 -1.326016 -5 0 
C -5 1.326016 -4.473168 2.597899 -3.535534 3.535534 
C -2.597899 4.473168 -1.326016 5 0 5 
z
" id="C5_0_868c047fe6"/>
    </defs>
    <g clip-path="url(#p43ff2f1a33)">
     <use style="fill:#3cbac1;stroke:#000000;stroke-width:0.5;" x="465.70812709" xlink:href="#C5_0_868c047fe6" y="472.930808553"/>
    </g>
    <g clip-path="url(#p43ff2f1a33)">
     <use style="fill:#3cbac1;stroke:#000000;stroke-width:0.5;" x="469.715034456" xlink:href="#C5_0_868c047fe6" y="475.994796154"/>
    </g>
    <g clip-path="url(#p43ff2f1a33)">
     <use style="fill:#3cbac1;stroke:#000000;stroke-width:0.5;" x="452.276432998" xlink:href="#C5_0_868c047fe6" y="477.666021628"/>
    </g>
   </g>
   <g id="PathCollection_14">
    <defs>
     <path d="M 0 5 
C 1.326016 5 2.597899 4.473168 3.535534 3.535534 
C 4.473168 2.597899 5 1.326016 5 0 
C 5 -1.326016 4.473168 -2.597899 3.535534 -3.535534 
C 2.597899 -4.473168 1.326016 -5 0 -5 
C -1.326016 -5 -2.597899 -4.473168 -3.535534 -3.535534 
C -4.473168 -2.597899 -5 -1.326016 -5 0 
C -5 1.326016 -4.473168 2.597899 -3.535534 3.535534 
C -2.597899 4.473168 -1.326016 5 0 5 
z
" id="m355ec89b5a" style="stroke:#000000;stroke-width:0.5;"/>
    </defs>
    <g clip-path="url(#p43ff2f1a33)">
     <use style="fill:#3db8d2;stroke:#000000;stroke-width:0.5;" x="464.310245393" xlink:href="#m355ec89b5a" y="513.160870333"/>
    </g>
   </g>
   <g id="PathCollection_15">
    <defs>
     <path d="M 0 5 
C 1.326016 5 2.597899 4.473168 3.535534 3.535534 
C 4.473168 2.597899 5 1.326016 5 0 
C 5 -1.326016 4.473168 -2.597899 3.535534 -3.535534 
C 2.597899 -4.473168 1.326016 -5 0 -5 
C -1.326016 -5 -2.597899 -4.473168 -3.535534 -3.535534 
C -4.473168 -2.597899 -5 -1.326016 -5 0 
C -5 1.326016 -4.473168 2.597899 -3.535534 3.535534 
C -2.597899 4.473168 -1.326016 5 0 5 
z
" id="C6_0_3db68ac7d5"/>
    </defs>
    <g clip-path="url(#p43ff2f1a33)">
     <use style="fill:#3fb5e8;stroke:#000000;stroke-width:0.5;" x="495.213119604" xlink:href="#C6_0_3db68ac7d5" y="549.038874682"/>
    </g>
    <g clip-path="url(#p43ff2f1a33)">
     <use style="fill:#3fb5e8;stroke:#000000;stroke-width:0.5;" x="473.97939067" xlink:href="#C6_0_3db68ac7d5" y="547.757259176"/>
    </g>
   </g>
   <g id="PathCollection_16">
    <defs>
     <path d="M 0 5 
C 1.326016 5 2.597899 4.473168 3.535534 3.535534 
C 4.473168 2.597899 5 1.326016 5 0 
C 5 -1.326016 4.473168 -2.597899 3.535534 -3.535534 
C 2.597899 -4.473168 1.326016 -5 0 -5 
C -1.326016 -5 -2.597899 -4.473168 -3.535534 -3.535534 
C -4.473168 -2.597899 -5 -1.326016 -5 0 
C -5 1.326016 -4.473168 2.597899 -3.535534 3.535534 
C -2.597899 4.473168 -1.326016 5 0 5 
z
" id="C7_0_3f4ea37ae3"/>
    </defs>
    <g clip-path="url(#p43ff2f1a33)">
     <use style="fill:#71acf6;stroke:#000000;stroke-width:0.5;" x="470.931667779" xlink:href="#C7_0_3f4ea37ae3" y="583.934074233"/>
    </g>
    <g clip-path="url(#p43ff2f1a33)">
     <use style="fill:#71acf6;stroke:#000000;stroke-width:0.5;" x="468.30383886" xlink:href="#C7_0_3f4ea37ae3" y="582.536146358"/>
    </g>
    <g clip-path="url(#p43ff2f1a33)">
     <use style="fill:#71acf6;stroke:#000000;stroke-width:0.5;" x="457.341663306" xlink:href="#C7_0_3f4ea37ae3" y="582.421371704"/>
    </g>
   </g>
   <g id="PathCollection_17">
    <defs>
     <path d="M 0 5 
C 1.326016 5 2.597899 4.473168 3.535534 3.535534 
C 4.473168 2.597899 5 1.326016 5 0 
C 5 -1.326016 4.473168 -2.597899 3.535534 -3.535534 
C 2.597899 -4.473168 1.326016 -5 0 -5 
C -1.326016 -5 -2.597899 -4.473168 -3.535534 -3.535534 
C -4.473168 -2.597899 -5 -1.326016 -5 0 
C -5 1.326016 -4.473168 2.597899 -3.535534 3.535534 
C -2.597899 4.473168 -1.326016 5 0 5 
z
" id="m51305c7385" style="stroke:#000000;stroke-width:0.5;"/>
    </defs>
    <g clip-path="url(#p43ff2f1a33)">
     <use style="fill:#9ea2f6;stroke:#000000;stroke-width:0.5;" x="458.132878276" xlink:href="#m51305c7385" y="618.455704788"/>
    </g>
   </g>
   <g id="PathCollection_18">
    <defs>
     <path d="M 0 5 
C 1.326016 5 2.597899 4.473168 3.535534 3.535534 
C 4.473168 2.597899 5 1.326016 5 0 
C 5 -1.326016 4.473168 -2.597899 3.535534 -3.535534 
C 2.597899 -4.473168 1.326016 -5 0 -5 
C -1.326016 -5 -2.597899 -4.473168 -3.535534 -3.535534 
C -4.473168 -2.597899 -5 -1.326016 -5 0 
C -5 1.326016 -4.473168 2.597899 -3.535534 3.535534 
C -2.597899 4.473168 -1.326016 5 0 5 
z
" id="C8_0_5529dcfc1c"/>
    </defs>
    <g clip-path="url(#p43ff2f1a33)">
     <use style="fill:#bf97f6;stroke:#000000;stroke-width:0.5;" x="463.252921222" xlink:href="#C8_0_5529dcfc1c" y="654.340899362"/>
    </g>
    <g clip-path="url(#p43ff2f1a33)">
     <use style="fill:#bf97f6;stroke:#000000;stroke-width:0.5;" x="480.047135036" xlink:href="#C8_0_5529dcfc1c" y="656.220977186"/>
    </g>
    <g clip-path="url(#p43ff2f1a33)">
     <use style="fill:#bf97f6;stroke:#000000;stroke-width:0.5;" x="457.899967661" xlink:href="#C8_0_5529dcfc1c" y="654.648895502"/>
    </g>
    <g clip-path="url(#p43ff2f1a33)">
     <use style="fill:#bf97f6;stroke:#000000;stroke-width:0.5;" x="469.856382989" xlink:href="#C8_0_5529dcfc1c" y="657.126872662"/>
    </g>
    <g clip-path="url(#p43ff2f1a33)">
     <use style="fill:#bf97f6;stroke:#000000;stroke-width:0.5;" x="485.638526729" xlink:href="#C8_0_5529dcfc1c" y="652.756789774"/>
    </g>
    <g clip-path="url(#p43ff2f1a33)">
     <use style="fill:#bf97f6;stroke:#000000;stroke-width:0.5;" x="471.260151429" xlink:href="#C8_0_5529dcfc1c" y="650.650215668"/>
    </g>
    <g clip-path="url(#p43ff2f1a33)">
     <use style="fill:#bf97f6;stroke:#000000;stroke-width:0.5;" x="483.789534113" xlink:href="#C8_0_5529dcfc1c" y="653.367072719"/>
    </g>
    <g clip-path="url(#p43ff2f1a33)">
     <use style="fill:#bf97f6;stroke:#000000;stroke-width:0.5;" x="458.067583937" xlink:href="#C8_0_5529dcfc1c" y="655.213805183"/>
    </g>
    <g clip-path="url(#p43ff2f1a33)">
     <use style="fill:#bf97f6;stroke:#000000;stroke-width:0.5;" x="458.23711974" xlink:href="#C8_0_5529dcfc1c" y="654.828928869"/>
    </g>
    <g clip-path="url(#p43ff2f1a33)">
     <use style="fill:#bf97f6;stroke:#000000;stroke-width:0.5;" x="446.7991762" xlink:href="#C8_0_5529dcfc1c" y="654.16127327"/>
    </g>
    <g clip-path="url(#p43ff2f1a33)">
     <use style="fill:#bf97f6;stroke:#000000;stroke-width:0.5;" x="443.864545956" xlink:href="#C8_0_5529dcfc1c" y="651.394215746"/>
    </g>
    <g clip-path="url(#p43ff2f1a33)">
     <use style="fill:#bf97f6;stroke:#000000;stroke-width:0.5;" x="451.396110561" xlink:href="#C8_0_5529dcfc1c" y="656.492765082"/>
    </g>
    <g clip-path="url(#p43ff2f1a33)">
     <use style="fill:#bf97f6;stroke:#000000;stroke-width:0.5;" x="451.317534316" xlink:href="#C8_0_5529dcfc1c" y="654.208068606"/>
    </g>
    <g clip-path="url(#p43ff2f1a33)">
     <use style="fill:#bf97f6;stroke:#000000;stroke-width:0.5;" x="460.235575144" xlink:href="#C8_0_5529dcfc1c" y="657.420765098"/>
    </g>
    <g clip-path="url(#p43ff2f1a33)">
     <use style="fill:#bf97f6;stroke:#000000;stroke-width:0.5;" x="463.805369889" xlink:href="#C8_0_5529dcfc1c" y="653.69568407"/>
    </g>
   </g>
   <g id="PathCollection_19">
    <defs>
     <path d="M 0 5 
C 1.326016 5 2.597899 4.473168 3.535534 3.535534 
C 4.473168 2.597899 5 1.326016 5 0 
C 5 -1.326016 4.473168 -2.597899 3.535534 -3.535534 
C 2.597899 -4.473168 1.326016 -5 0 -5 
C -1.326016 -5 -2.597899 -4.473168 -3.535534 -3.535534 
C -4.473168 -2.597899 -5 -1.326016 -5 0 
C -5 1.326016 -4.473168 2.597899 -3.535534 3.535534 
C -2.597899 4.473168 -1.326016 5 0 5 
z
" id="C9_0_fc9bb4e06e"/>
    </defs>
    <g clip-path="url(#p43ff2f1a33)">
     <use style="fill:#df87f6;stroke:#000000;stroke-width:0.5;" x="467.540461019" xlink:href="#C9_0_fc9bb4e06e" y="687.473336176"/>
    </g>
    <g clip-path="url(#p43ff2f1a33)">
     <use style="fill:#df87f6;stroke:#000000;stroke-width:0.5;" x="465.773223132" xlink:href="#C9_0_fc9bb4e06e" y="690.711613622"/>
    </g>
    <g clip-path="url(#p43ff2f1a33)">
     <use style="fill:#df87f6;stroke:#000000;stroke-width:0.5;" x="457.593635829" xlink:href="#C9_0_fc9bb4e06e" y="691.931819722"/>
    </g>
   </g>
   <g id="PathCollection_20">
    <defs>
     <path d="M 0 5 
C 1.326016 5 2.597899 4.473168 3.535534 3.535534 
C 4.473168 2.597899 5 1.326016 5 0 
C 5 -1.326016 4.473168 -2.597899 3.535534 -3.535534 
C 2.597899 -4.473168 1.326016 -5 0 -5 
C -1.326016 -5 -2.597899 -4.473168 -3.535534 -3.535534 
C -4.473168 -2.597899 -5 -1.326016 -5 0 
C -5 1.326016 -4.473168 2.597899 -3.535534 3.535534 
C -2.597899 4.473168 -1.326016 5 0 5 
z
" id="mc612efb888" style="stroke:#000000;stroke-width:0.5;"/>
    </defs>
    <g clip-path="url(#p43ff2f1a33)">
     <use style="fill:#f67be9;stroke:#000000;stroke-width:0.5;" x="468.383337206" xlink:href="#mc612efb888" y="723.334963179"/>
    </g>
   </g>
   <g id="PathCollection_21">
    <defs>
     <path d="M 0 5 
C 1.326016 5 2.597899 4.473168 3.535534 3.535534 
C 4.473168 2.597899 5 1.326016 5 0 
C 5 -1.326016 4.473168 -2.597899 3.535534 -3.535534 
C 2.597899 -4.473168 1.326016 -5 0 -5 
C -1.326016 -5 -2.597899 -4.473168 -3.535534 -3.535534 
C -4.473168 -2.597899 -5 -1.326016 -5 0 
C -5 1.326016 -4.473168 2.597899 -3.535534 3.535534 
C -2.597899 4.473168 -1.326016 5 0 5 
z
" id="m2bf3629904" style="stroke:#000000;stroke-width:0.5;"/>
    </defs>
    <g clip-path="url(#p43ff2f1a33)">
     <use style="fill:#f781cd;stroke:#000000;stroke-width:0.5;" x="481.377264955" xlink:href="#m2bf3629904" y="763.420994985"/>
    </g>
   </g>
   <g id="PathCollection_22">
    <defs>
     <path d="M 0 5 
C 1.326016 5 2.597899 4.473168 3.535534 3.535534 
C 4.473168 2.597899 5 1.326016 5 0 
C 5 -1.326016 4.473168 -2.597899 3.535534 -3.535534 
C 2.597899 -4.473168 1.326016 -5 0 -5 
C -1.326016 -5 -2.597899 -4.473168 -3.535534 -3.535534 
C -4.473168 -2.597899 -5 -1.326016 -5 0 
C -5 1.326016 -4.473168 2.597899 -3.535534 3.535534 
C -2.597899 4.473168 -1.326016 5 0 5 
z
" id="Ca_0_8a371b400b"/>
    </defs>
    <g clip-path="url(#p43ff2f1a33)">
     <use style="fill:#f784b5;stroke:#000000;stroke-width:0.5;" x="454.639280576" xlink:href="#Ca_0_8a371b400b" y="800.967021682"/>
    </g>
    <g clip-path="url(#p43ff2f1a33)">
     <use style="fill:#f784b5;stroke:#000000;stroke-width:0.5;" x="469.202713779" xlink:href="#Ca_0_8a371b400b" y="795.181167907"/>
    </g>
    <g clip-path="url(#p43ff2f1a33)">
     <use style="fill:#f784b5;stroke:#000000;stroke-width:0.5;" x="464.215978243" xlink:href="#Ca_0_8a371b400b" y="798.667379029"/>
    </g>
    <g clip-path="url(#p43ff2f1a33)">
     <use style="fill:#f784b5;stroke:#000000;stroke-width:0.5;" x="459.640361337" xlink:href="#Ca_0_8a371b400b" y="796.690265968"/>
    </g>
    <g clip-path="url(#p43ff2f1a33)">
     <use style="fill:#f784b5;stroke:#000000;stroke-width:0.5;" x="463.738698365" xlink:href="#Ca_0_8a371b400b" y="796.99190947"/>
    </g>
    <g clip-path="url(#p43ff2f1a33)">
     <use style="fill:#f784b5;stroke:#000000;stroke-width:0.5;" x="481.247441634" xlink:href="#Ca_0_8a371b400b" y="795.320217512"/>
    </g>
    <g clip-path="url(#p43ff2f1a33)">
     <use style="fill:#f784b5;stroke:#000000;stroke-width:0.5;" x="469.379742768" xlink:href="#Ca_0_8a371b400b" y="797.725076786"/>
    </g>
   </g>
  </g>
 </g>
 <defs>
  <clipPath id="p43ff2f1a33">
   <rect height="790.861725" width="425.6586" x="269.4582" y="24.8832"/>
  </clipPath>
 </defs>
</svg>
